%TF.GenerationSoftware,KiCad,Pcbnew,9.0.4-1.fc42app3*%
%TF.CreationDate,2025-10-16T14:03:15+02:00*%
%TF.ProjectId,ccc_macropad,6363635f-6d61-4637-926f-7061642e6b69,rev?*%
%TF.SameCoordinates,Original*%
%TF.FileFunction,Legend,Top*%
%TF.FilePolarity,Positive*%
%FSLAX46Y46*%
G04 Gerber Fmt 4.6, Leading zero omitted, Abs format (unit mm)*
G04 Created by KiCad (PCBNEW 9.0.4-1.fc42app3) date 2025-10-16 14:03:15*
%MOMM*%
%LPD*%
G01*
G04 APERTURE LIST*
%ADD10C,0.750000*%
%ADD11C,0.150000*%
%ADD12C,0.100000*%
%ADD13C,0.101600*%
%ADD14C,0.125000*%
%ADD15C,0.120000*%
%ADD16C,0.300000*%
%ADD17C,0.127000*%
%ADD18C,0.504000*%
G04 APERTURE END LIST*
D10*
X197421992Y-65648478D02*
X197279135Y-65791336D01*
X197279135Y-65791336D02*
X196850563Y-65934193D01*
X196850563Y-65934193D02*
X196564849Y-65934193D01*
X196564849Y-65934193D02*
X196136278Y-65791336D01*
X196136278Y-65791336D02*
X195850563Y-65505621D01*
X195850563Y-65505621D02*
X195707706Y-65219907D01*
X195707706Y-65219907D02*
X195564849Y-64648478D01*
X195564849Y-64648478D02*
X195564849Y-64219907D01*
X195564849Y-64219907D02*
X195707706Y-63648478D01*
X195707706Y-63648478D02*
X195850563Y-63362764D01*
X195850563Y-63362764D02*
X196136278Y-63077050D01*
X196136278Y-63077050D02*
X196564849Y-62934193D01*
X196564849Y-62934193D02*
X196850563Y-62934193D01*
X196850563Y-62934193D02*
X197279135Y-63077050D01*
X197279135Y-63077050D02*
X197421992Y-63219907D01*
X199136278Y-65934193D02*
X198850563Y-65791336D01*
X198850563Y-65791336D02*
X198707706Y-65648478D01*
X198707706Y-65648478D02*
X198564849Y-65362764D01*
X198564849Y-65362764D02*
X198564849Y-64505621D01*
X198564849Y-64505621D02*
X198707706Y-64219907D01*
X198707706Y-64219907D02*
X198850563Y-64077050D01*
X198850563Y-64077050D02*
X199136278Y-63934193D01*
X199136278Y-63934193D02*
X199564849Y-63934193D01*
X199564849Y-63934193D02*
X199850563Y-64077050D01*
X199850563Y-64077050D02*
X199993421Y-64219907D01*
X199993421Y-64219907D02*
X200136278Y-64505621D01*
X200136278Y-64505621D02*
X200136278Y-65362764D01*
X200136278Y-65362764D02*
X199993421Y-65648478D01*
X199993421Y-65648478D02*
X199850563Y-65791336D01*
X199850563Y-65791336D02*
X199564849Y-65934193D01*
X199564849Y-65934193D02*
X199136278Y-65934193D01*
X201850564Y-65934193D02*
X201564849Y-65791336D01*
X201564849Y-65791336D02*
X201421992Y-65648478D01*
X201421992Y-65648478D02*
X201279135Y-65362764D01*
X201279135Y-65362764D02*
X201279135Y-64505621D01*
X201279135Y-64505621D02*
X201421992Y-64219907D01*
X201421992Y-64219907D02*
X201564849Y-64077050D01*
X201564849Y-64077050D02*
X201850564Y-63934193D01*
X201850564Y-63934193D02*
X202279135Y-63934193D01*
X202279135Y-63934193D02*
X202564849Y-64077050D01*
X202564849Y-64077050D02*
X202707707Y-64219907D01*
X202707707Y-64219907D02*
X202850564Y-64505621D01*
X202850564Y-64505621D02*
X202850564Y-65362764D01*
X202850564Y-65362764D02*
X202707707Y-65648478D01*
X202707707Y-65648478D02*
X202564849Y-65791336D01*
X202564849Y-65791336D02*
X202279135Y-65934193D01*
X202279135Y-65934193D02*
X201850564Y-65934193D01*
X204564850Y-65934193D02*
X204279135Y-65791336D01*
X204279135Y-65791336D02*
X204136278Y-65505621D01*
X204136278Y-65505621D02*
X204136278Y-62934193D01*
X195564849Y-70621168D02*
X195993421Y-70764025D01*
X195993421Y-70764025D02*
X196707706Y-70764025D01*
X196707706Y-70764025D02*
X196993421Y-70621168D01*
X196993421Y-70621168D02*
X197136278Y-70478310D01*
X197136278Y-70478310D02*
X197279135Y-70192596D01*
X197279135Y-70192596D02*
X197279135Y-69906882D01*
X197279135Y-69906882D02*
X197136278Y-69621168D01*
X197136278Y-69621168D02*
X196993421Y-69478310D01*
X196993421Y-69478310D02*
X196707706Y-69335453D01*
X196707706Y-69335453D02*
X196136278Y-69192596D01*
X196136278Y-69192596D02*
X195850563Y-69049739D01*
X195850563Y-69049739D02*
X195707706Y-68906882D01*
X195707706Y-68906882D02*
X195564849Y-68621168D01*
X195564849Y-68621168D02*
X195564849Y-68335453D01*
X195564849Y-68335453D02*
X195707706Y-68049739D01*
X195707706Y-68049739D02*
X195850563Y-67906882D01*
X195850563Y-67906882D02*
X196136278Y-67764025D01*
X196136278Y-67764025D02*
X196850563Y-67764025D01*
X196850563Y-67764025D02*
X197279135Y-67906882D01*
X198136278Y-68764025D02*
X199279135Y-68764025D01*
X198564849Y-67764025D02*
X198564849Y-70335453D01*
X198564849Y-70335453D02*
X198707706Y-70621168D01*
X198707706Y-70621168D02*
X198993421Y-70764025D01*
X198993421Y-70764025D02*
X199279135Y-70764025D01*
X201564850Y-68764025D02*
X201564850Y-70764025D01*
X200279135Y-68764025D02*
X200279135Y-70335453D01*
X200279135Y-70335453D02*
X200421992Y-70621168D01*
X200421992Y-70621168D02*
X200707707Y-70764025D01*
X200707707Y-70764025D02*
X201136278Y-70764025D01*
X201136278Y-70764025D02*
X201421992Y-70621168D01*
X201421992Y-70621168D02*
X201564850Y-70478310D01*
X202564850Y-68764025D02*
X203707707Y-68764025D01*
X202993421Y-70764025D02*
X202993421Y-68192596D01*
X202993421Y-68192596D02*
X203136278Y-67906882D01*
X203136278Y-67906882D02*
X203421993Y-67764025D01*
X203421993Y-67764025D02*
X203707707Y-67764025D01*
X204279136Y-68764025D02*
X205421993Y-68764025D01*
X204707707Y-70764025D02*
X204707707Y-68192596D01*
X204707707Y-68192596D02*
X204850564Y-67906882D01*
X204850564Y-67906882D02*
X205136279Y-67764025D01*
X205136279Y-67764025D02*
X205421993Y-67764025D01*
X195707706Y-75593857D02*
X195707706Y-72593857D01*
X195707706Y-74022428D02*
X197421992Y-74022428D01*
X197421992Y-75593857D02*
X197421992Y-72593857D01*
X199993420Y-75451000D02*
X199707706Y-75593857D01*
X199707706Y-75593857D02*
X199136278Y-75593857D01*
X199136278Y-75593857D02*
X198850563Y-75451000D01*
X198850563Y-75451000D02*
X198707706Y-75165285D01*
X198707706Y-75165285D02*
X198707706Y-74022428D01*
X198707706Y-74022428D02*
X198850563Y-73736714D01*
X198850563Y-73736714D02*
X199136278Y-73593857D01*
X199136278Y-73593857D02*
X199707706Y-73593857D01*
X199707706Y-73593857D02*
X199993420Y-73736714D01*
X199993420Y-73736714D02*
X200136278Y-74022428D01*
X200136278Y-74022428D02*
X200136278Y-74308142D01*
X200136278Y-74308142D02*
X198707706Y-74593857D01*
X201421992Y-75593857D02*
X201421992Y-73593857D01*
X201421992Y-74165285D02*
X201564849Y-73879571D01*
X201564849Y-73879571D02*
X201707707Y-73736714D01*
X201707707Y-73736714D02*
X201993421Y-73593857D01*
X201993421Y-73593857D02*
X202279135Y-73593857D01*
X204421992Y-75451000D02*
X204136278Y-75593857D01*
X204136278Y-75593857D02*
X203564850Y-75593857D01*
X203564850Y-75593857D02*
X203279135Y-75451000D01*
X203279135Y-75451000D02*
X203136278Y-75165285D01*
X203136278Y-75165285D02*
X203136278Y-74022428D01*
X203136278Y-74022428D02*
X203279135Y-73736714D01*
X203279135Y-73736714D02*
X203564850Y-73593857D01*
X203564850Y-73593857D02*
X204136278Y-73593857D01*
X204136278Y-73593857D02*
X204421992Y-73736714D01*
X204421992Y-73736714D02*
X204564850Y-74022428D01*
X204564850Y-74022428D02*
X204564850Y-74308142D01*
X204564850Y-74308142D02*
X203136278Y-74593857D01*
D11*
G36*
X113788250Y-63958522D02*
G01*
X113876483Y-63863329D01*
X113940894Y-63913098D01*
X114014358Y-63950829D01*
X114093080Y-63974508D01*
X114171895Y-63982275D01*
X114237164Y-63977282D01*
X114289012Y-63963572D01*
X114330103Y-63942402D01*
X114363169Y-63912119D01*
X114382332Y-63876573D01*
X114388904Y-63833898D01*
X114385443Y-63806224D01*
X114375286Y-63781778D01*
X114358069Y-63759709D01*
X114323804Y-63731320D01*
X114277591Y-63704388D01*
X114167681Y-63657493D01*
X114047270Y-63608522D01*
X113989151Y-63579506D01*
X113937360Y-63546912D01*
X113892085Y-63508298D01*
X113856821Y-63463625D01*
X113840101Y-63430171D01*
X113829698Y-63391565D01*
X113826047Y-63346694D01*
X113829687Y-63302810D01*
X113840250Y-63263436D01*
X113857554Y-63227748D01*
X113893857Y-63180230D01*
X113940169Y-63140920D01*
X113993475Y-63110303D01*
X114051483Y-63088407D01*
X114111447Y-63075142D01*
X114167681Y-63070883D01*
X114230383Y-63075031D01*
X114290857Y-63087382D01*
X114349642Y-63108008D01*
X114405013Y-63136399D01*
X114454303Y-63171538D01*
X114498081Y-63213704D01*
X114405696Y-63299128D01*
X114346652Y-63250006D01*
X114292978Y-63220726D01*
X114235235Y-63204143D01*
X114167681Y-63198317D01*
X114121743Y-63202613D01*
X114074564Y-63215841D01*
X114030932Y-63237422D01*
X113995429Y-63266216D01*
X113977404Y-63289728D01*
X113966831Y-63315342D01*
X113963250Y-63343885D01*
X113966713Y-63372538D01*
X113976867Y-63397945D01*
X113994025Y-63420944D01*
X114028528Y-63450518D01*
X114075235Y-63478341D01*
X114185877Y-63527312D01*
X114305556Y-63577748D01*
X114363253Y-63606498D01*
X114415466Y-63638625D01*
X114461345Y-63676586D01*
X114496676Y-63720508D01*
X114513470Y-63753460D01*
X114523836Y-63790925D01*
X114527451Y-63833898D01*
X114521468Y-63894361D01*
X114504235Y-63946890D01*
X114475968Y-63993120D01*
X114435738Y-64034116D01*
X114388486Y-64065327D01*
X114330340Y-64088921D01*
X114259053Y-64104192D01*
X114171895Y-64109709D01*
X114098098Y-64104839D01*
X114027364Y-64090378D01*
X113959037Y-64066295D01*
X113893793Y-64034193D01*
X113837147Y-63998236D01*
X113788250Y-63958522D01*
G37*
G36*
X114627835Y-63093292D02*
G01*
X114765038Y-63093292D01*
X114765185Y-63350256D01*
X114776212Y-63567917D01*
X114797339Y-63772736D01*
X114823840Y-63938922D01*
X114959639Y-63425096D01*
X115080050Y-63425096D01*
X115215850Y-63937518D01*
X115241115Y-63771433D01*
X115261279Y-63567245D01*
X115272489Y-63350101D01*
X115274651Y-63093292D01*
X115411854Y-63093292D01*
X115409214Y-63313227D01*
X115400016Y-63505096D01*
X115385171Y-63671537D01*
X115363034Y-63837976D01*
X115338076Y-63975320D01*
X115311043Y-64087300D01*
X115127617Y-64087300D01*
X115019845Y-63651876D01*
X114912011Y-64087300D01*
X114728646Y-64087300D01*
X114701437Y-63975313D01*
X114675990Y-63837962D01*
X114652992Y-63671537D01*
X114637721Y-63505139D01*
X114628986Y-63313289D01*
X114627835Y-63093292D01*
G37*
G36*
X115580748Y-64087300D02*
G01*
X115580748Y-63964079D01*
X115838363Y-63964079D01*
X115838363Y-63315920D01*
X115774614Y-63355382D01*
X115704855Y-63387120D01*
X115628376Y-63411113D01*
X115570979Y-63283679D01*
X115653531Y-63257963D01*
X115738285Y-63215108D01*
X115791004Y-63178355D01*
X115834818Y-63137795D01*
X115870604Y-63093292D01*
X115978376Y-63093292D01*
X115978376Y-63964079D01*
X116214986Y-63964079D01*
X116214986Y-64087300D01*
X115580748Y-64087300D01*
G37*
G36*
X173798250Y-64558522D02*
G01*
X173886483Y-64463329D01*
X173950894Y-64513098D01*
X174024358Y-64550829D01*
X174103080Y-64574508D01*
X174181895Y-64582275D01*
X174247164Y-64577282D01*
X174299012Y-64563572D01*
X174340103Y-64542402D01*
X174373169Y-64512119D01*
X174392332Y-64476573D01*
X174398904Y-64433898D01*
X174395443Y-64406224D01*
X174385286Y-64381778D01*
X174368069Y-64359709D01*
X174333804Y-64331320D01*
X174287591Y-64304388D01*
X174177681Y-64257493D01*
X174057270Y-64208522D01*
X173999151Y-64179506D01*
X173947360Y-64146912D01*
X173902085Y-64108298D01*
X173866821Y-64063625D01*
X173850101Y-64030171D01*
X173839698Y-63991565D01*
X173836047Y-63946694D01*
X173839687Y-63902810D01*
X173850250Y-63863436D01*
X173867554Y-63827748D01*
X173903857Y-63780230D01*
X173950169Y-63740920D01*
X174003475Y-63710303D01*
X174061483Y-63688407D01*
X174121447Y-63675142D01*
X174177681Y-63670883D01*
X174240383Y-63675031D01*
X174300857Y-63687382D01*
X174359642Y-63708008D01*
X174415013Y-63736399D01*
X174464303Y-63771538D01*
X174508081Y-63813704D01*
X174415696Y-63899128D01*
X174356652Y-63850006D01*
X174302978Y-63820726D01*
X174245235Y-63804143D01*
X174177681Y-63798317D01*
X174131743Y-63802613D01*
X174084564Y-63815841D01*
X174040932Y-63837422D01*
X174005429Y-63866216D01*
X173987404Y-63889728D01*
X173976831Y-63915342D01*
X173973250Y-63943885D01*
X173976713Y-63972538D01*
X173986867Y-63997945D01*
X174004025Y-64020944D01*
X174038528Y-64050518D01*
X174085235Y-64078341D01*
X174195877Y-64127312D01*
X174315556Y-64177748D01*
X174373253Y-64206498D01*
X174425466Y-64238625D01*
X174471345Y-64276586D01*
X174506676Y-64320508D01*
X174523470Y-64353460D01*
X174533836Y-64390925D01*
X174537451Y-64433898D01*
X174531468Y-64494361D01*
X174514235Y-64546890D01*
X174485968Y-64593120D01*
X174445738Y-64634116D01*
X174398486Y-64665327D01*
X174340340Y-64688921D01*
X174269053Y-64704192D01*
X174181895Y-64709709D01*
X174108098Y-64704839D01*
X174037364Y-64690378D01*
X173969037Y-64666295D01*
X173903793Y-64634193D01*
X173847147Y-64598236D01*
X173798250Y-64558522D01*
G37*
G36*
X174637835Y-63693292D02*
G01*
X174775038Y-63693292D01*
X174775185Y-63950256D01*
X174786212Y-64167917D01*
X174807339Y-64372736D01*
X174833840Y-64538922D01*
X174969639Y-64025096D01*
X175090050Y-64025096D01*
X175225850Y-64537518D01*
X175251115Y-64371433D01*
X175271279Y-64167245D01*
X175282489Y-63950101D01*
X175284651Y-63693292D01*
X175421854Y-63693292D01*
X175419214Y-63913227D01*
X175410016Y-64105096D01*
X175395171Y-64271537D01*
X175373034Y-64437976D01*
X175348076Y-64575320D01*
X175321043Y-64687300D01*
X175137617Y-64687300D01*
X175029845Y-64251876D01*
X174922011Y-64687300D01*
X174738646Y-64687300D01*
X174711437Y-64575313D01*
X174685990Y-64437962D01*
X174662992Y-64271537D01*
X174647721Y-64105139D01*
X174638986Y-63913289D01*
X174637835Y-63693292D01*
G37*
G36*
X176166184Y-63816513D02*
G01*
X175743400Y-63816513D01*
X175743400Y-64127312D01*
X175781489Y-64098764D01*
X175828091Y-64076204D01*
X175879402Y-64062124D01*
X175936596Y-64057275D01*
X175985834Y-64061758D01*
X176031742Y-64075013D01*
X176075143Y-64097209D01*
X176113957Y-64126936D01*
X176147470Y-64163765D01*
X176175954Y-64208522D01*
X176196527Y-64257427D01*
X176209299Y-64312561D01*
X176213751Y-64375096D01*
X176209075Y-64440383D01*
X176195621Y-64498329D01*
X176173878Y-64550096D01*
X176143525Y-64597096D01*
X176106591Y-64636042D01*
X176062564Y-64667699D01*
X176013416Y-64690653D01*
X175958304Y-64704798D01*
X175895991Y-64709709D01*
X175835829Y-64706359D01*
X175781210Y-64696667D01*
X175731432Y-64681010D01*
X175684189Y-64658848D01*
X175633738Y-64627345D01*
X175579574Y-64585084D01*
X175670555Y-64498317D01*
X175719947Y-64538048D01*
X175768557Y-64564812D01*
X175821849Y-64580759D01*
X175887564Y-64586488D01*
X175937533Y-64580217D01*
X175981825Y-64561788D01*
X176021959Y-64530496D01*
X176052222Y-64489918D01*
X176071153Y-64439103D01*
X176077952Y-64375096D01*
X176072422Y-64318923D01*
X176056822Y-64272476D01*
X176031729Y-64233741D01*
X175997743Y-64203519D01*
X175957363Y-64185409D01*
X175908569Y-64179091D01*
X175866688Y-64182207D01*
X175823878Y-64191731D01*
X175782280Y-64206473D01*
X175743400Y-64225314D01*
X175620180Y-64225314D01*
X175620180Y-63693292D01*
X176166184Y-63693292D01*
X176166184Y-63816513D01*
G37*
G36*
X179365000Y-44147728D02*
G01*
X179241779Y-44147728D01*
X179241779Y-43890113D01*
X178593620Y-43890113D01*
X178633082Y-43953862D01*
X178664820Y-44023622D01*
X178688813Y-44100101D01*
X178561379Y-44157498D01*
X178535663Y-44074945D01*
X178492808Y-43990191D01*
X178456055Y-43937472D01*
X178415495Y-43893658D01*
X178370992Y-43857873D01*
X178370992Y-43750101D01*
X179241779Y-43750101D01*
X179241779Y-43513490D01*
X179365000Y-43513490D01*
X179365000Y-44147728D01*
G37*
G36*
X178976537Y-42620914D02*
G01*
X179073801Y-42633361D01*
X179136296Y-42647646D01*
X179191076Y-42666668D01*
X179239031Y-42690087D01*
X179282487Y-42720051D01*
X179318671Y-42756052D01*
X179348208Y-42798591D01*
X179369218Y-42845867D01*
X179382617Y-42902586D01*
X179387409Y-42970722D01*
X179382630Y-43038897D01*
X179369241Y-43095902D01*
X179348208Y-43143646D01*
X179318684Y-43186705D01*
X179282494Y-43223425D01*
X179239031Y-43254288D01*
X179191008Y-43278541D01*
X179136225Y-43298249D01*
X179073801Y-43313089D01*
X178976514Y-43326036D01*
X178868026Y-43330552D01*
X178758322Y-43326011D01*
X178661519Y-43313089D01*
X178599548Y-43298268D01*
X178544997Y-43278565D01*
X178497021Y-43254288D01*
X178453520Y-43223421D01*
X178417311Y-43186701D01*
X178387784Y-43143646D01*
X178366751Y-43095902D01*
X178353362Y-43038897D01*
X178348583Y-42970722D01*
X178473208Y-42970722D01*
X178476855Y-43018533D01*
X178486943Y-43057170D01*
X178502639Y-43088386D01*
X178524667Y-43115462D01*
X178552170Y-43137777D01*
X178585926Y-43155552D01*
X178642503Y-43173877D01*
X178711222Y-43185655D01*
X178784147Y-43191345D01*
X178866622Y-43193349D01*
X179000345Y-43188464D01*
X179060884Y-43180714D01*
X179113002Y-43168131D01*
X178524987Y-42827962D01*
X178502940Y-42854296D01*
X178486519Y-42886763D01*
X178476771Y-42923793D01*
X178473208Y-42970722D01*
X178348583Y-42970722D01*
X178353375Y-42902586D01*
X178366774Y-42845867D01*
X178387784Y-42798591D01*
X178404322Y-42774778D01*
X178625799Y-42774778D01*
X179212409Y-43113543D01*
X179233316Y-43087216D01*
X179249534Y-43054069D01*
X179259280Y-43016558D01*
X179262784Y-42970722D01*
X179259007Y-42922035D01*
X179248654Y-42883538D01*
X179232681Y-42853180D01*
X179210271Y-42827009D01*
X179182543Y-42805600D01*
X179148722Y-42788761D01*
X179092088Y-42771677D01*
X179022693Y-42760795D01*
X178949140Y-42755597D01*
X178866622Y-42753773D01*
X178736379Y-42757986D01*
X178676480Y-42764482D01*
X178625799Y-42774778D01*
X178404322Y-42774778D01*
X178417324Y-42756056D01*
X178453527Y-42720054D01*
X178497021Y-42690087D01*
X178571323Y-42656566D01*
X178661519Y-42633361D01*
X178758299Y-42620938D01*
X178868026Y-42616569D01*
X178976537Y-42620914D01*
G37*
G36*
X178976537Y-41753363D02*
G01*
X179073801Y-41765811D01*
X179136296Y-41780096D01*
X179191076Y-41799117D01*
X179239031Y-41822536D01*
X179282487Y-41852500D01*
X179318671Y-41888502D01*
X179348208Y-41931041D01*
X179369218Y-41978317D01*
X179382617Y-42035035D01*
X179387409Y-42103171D01*
X179382630Y-42171346D01*
X179369241Y-42228351D01*
X179348208Y-42276095D01*
X179318684Y-42319154D01*
X179282494Y-42355874D01*
X179239031Y-42386737D01*
X179191008Y-42410990D01*
X179136225Y-42430698D01*
X179073801Y-42445538D01*
X178976514Y-42458486D01*
X178868026Y-42463002D01*
X178758322Y-42458460D01*
X178661519Y-42445538D01*
X178599548Y-42430717D01*
X178544997Y-42411015D01*
X178497021Y-42386737D01*
X178453520Y-42355870D01*
X178417311Y-42319150D01*
X178387784Y-42276095D01*
X178366751Y-42228351D01*
X178353362Y-42171346D01*
X178348583Y-42103171D01*
X178473208Y-42103171D01*
X178476855Y-42150982D01*
X178486943Y-42189620D01*
X178502639Y-42220835D01*
X178524667Y-42247912D01*
X178552170Y-42270226D01*
X178585926Y-42288002D01*
X178642503Y-42306326D01*
X178711222Y-42318105D01*
X178784147Y-42323794D01*
X178866622Y-42325798D01*
X179000345Y-42320913D01*
X179060884Y-42313164D01*
X179113002Y-42300580D01*
X178524987Y-41960411D01*
X178502940Y-41986746D01*
X178486519Y-42019213D01*
X178476771Y-42056242D01*
X178473208Y-42103171D01*
X178348583Y-42103171D01*
X178353375Y-42035035D01*
X178366774Y-41978317D01*
X178387784Y-41931041D01*
X178404323Y-41907227D01*
X178625799Y-41907227D01*
X179212409Y-42245992D01*
X179233316Y-42219666D01*
X179249534Y-42186519D01*
X179259280Y-42149007D01*
X179262784Y-42103171D01*
X179259007Y-42054484D01*
X179248654Y-42015988D01*
X179232681Y-41985629D01*
X179210271Y-41959458D01*
X179182543Y-41938049D01*
X179148722Y-41921210D01*
X179092088Y-41904126D01*
X179022693Y-41893244D01*
X178949140Y-41888047D01*
X178866622Y-41886222D01*
X178736379Y-41890435D01*
X178676480Y-41896931D01*
X178625799Y-41907227D01*
X178404323Y-41907227D01*
X178417324Y-41888506D01*
X178453527Y-41852504D01*
X178497021Y-41822536D01*
X178571323Y-41789016D01*
X178661519Y-41765811D01*
X178758299Y-41753388D01*
X178868026Y-41749019D01*
X178976537Y-41753363D01*
G37*
G36*
X179365000Y-41010245D02*
G01*
X178970181Y-41272074D01*
X178970181Y-41444265D01*
X179365000Y-41444265D01*
X179365000Y-41581468D01*
X178370992Y-41581468D01*
X178370992Y-41227255D01*
X178494213Y-41227255D01*
X178494213Y-41444265D01*
X178847021Y-41444265D01*
X178847021Y-41227255D01*
X178840681Y-41162860D01*
X178823614Y-41115232D01*
X178797318Y-41080282D01*
X178761688Y-41054114D01*
X178720030Y-41038211D01*
X178670617Y-41032655D01*
X178614686Y-41038519D01*
X178572120Y-41054551D01*
X178539746Y-41079750D01*
X178515766Y-41114988D01*
X178500059Y-41162851D01*
X178494213Y-41227255D01*
X178370992Y-41227255D01*
X178376869Y-41140611D01*
X178392896Y-41072335D01*
X178417324Y-41018874D01*
X178449394Y-40977395D01*
X178490809Y-40943922D01*
X178540315Y-40919354D01*
X178599537Y-40903802D01*
X178670617Y-40898260D01*
X178745286Y-40905036D01*
X178807969Y-40924210D01*
X178861004Y-40954985D01*
X178894519Y-40985770D01*
X178922256Y-41023802D01*
X178944342Y-41070186D01*
X178960411Y-41126444D01*
X179351017Y-40860463D01*
X179365000Y-40860463D01*
X179365000Y-41010245D01*
G37*
G36*
X183415000Y-44147728D02*
G01*
X183291779Y-44147728D01*
X183291779Y-43890113D01*
X182643620Y-43890113D01*
X182683082Y-43953862D01*
X182714820Y-44023622D01*
X182738813Y-44100101D01*
X182611379Y-44157498D01*
X182585663Y-44074945D01*
X182542808Y-43990191D01*
X182506055Y-43937472D01*
X182465495Y-43893658D01*
X182420992Y-43857873D01*
X182420992Y-43750101D01*
X183291779Y-43750101D01*
X183291779Y-43513490D01*
X183415000Y-43513490D01*
X183415000Y-44147728D01*
G37*
G36*
X183026537Y-42620914D02*
G01*
X183123801Y-42633361D01*
X183186296Y-42647646D01*
X183241076Y-42666668D01*
X183289031Y-42690087D01*
X183332487Y-42720051D01*
X183368671Y-42756052D01*
X183398208Y-42798591D01*
X183419218Y-42845867D01*
X183432617Y-42902586D01*
X183437409Y-42970722D01*
X183432630Y-43038897D01*
X183419241Y-43095902D01*
X183398208Y-43143646D01*
X183368684Y-43186705D01*
X183332494Y-43223425D01*
X183289031Y-43254288D01*
X183241008Y-43278541D01*
X183186225Y-43298249D01*
X183123801Y-43313089D01*
X183026514Y-43326036D01*
X182918026Y-43330552D01*
X182808322Y-43326011D01*
X182711519Y-43313089D01*
X182649548Y-43298268D01*
X182594997Y-43278565D01*
X182547021Y-43254288D01*
X182503520Y-43223421D01*
X182467311Y-43186701D01*
X182437784Y-43143646D01*
X182416751Y-43095902D01*
X182403362Y-43038897D01*
X182398583Y-42970722D01*
X182523208Y-42970722D01*
X182526855Y-43018533D01*
X182536943Y-43057170D01*
X182552639Y-43088386D01*
X182574667Y-43115462D01*
X182602170Y-43137777D01*
X182635926Y-43155552D01*
X182692503Y-43173877D01*
X182761222Y-43185655D01*
X182834147Y-43191345D01*
X182916622Y-43193349D01*
X183050345Y-43188464D01*
X183110884Y-43180714D01*
X183163002Y-43168131D01*
X182574987Y-42827962D01*
X182552940Y-42854296D01*
X182536519Y-42886763D01*
X182526771Y-42923793D01*
X182523208Y-42970722D01*
X182398583Y-42970722D01*
X182403375Y-42902586D01*
X182416774Y-42845867D01*
X182437784Y-42798591D01*
X182454322Y-42774778D01*
X182675799Y-42774778D01*
X183262409Y-43113543D01*
X183283316Y-43087216D01*
X183299534Y-43054069D01*
X183309280Y-43016558D01*
X183312784Y-42970722D01*
X183309007Y-42922035D01*
X183298654Y-42883538D01*
X183282681Y-42853180D01*
X183260271Y-42827009D01*
X183232543Y-42805600D01*
X183198722Y-42788761D01*
X183142088Y-42771677D01*
X183072693Y-42760795D01*
X182999140Y-42755597D01*
X182916622Y-42753773D01*
X182786379Y-42757986D01*
X182726480Y-42764482D01*
X182675799Y-42774778D01*
X182454322Y-42774778D01*
X182467324Y-42756056D01*
X182503527Y-42720054D01*
X182547021Y-42690087D01*
X182621323Y-42656566D01*
X182711519Y-42633361D01*
X182808299Y-42620938D01*
X182918026Y-42616569D01*
X183026537Y-42620914D01*
G37*
G36*
X183026537Y-41753363D02*
G01*
X183123801Y-41765811D01*
X183186296Y-41780096D01*
X183241076Y-41799117D01*
X183289031Y-41822536D01*
X183332487Y-41852500D01*
X183368671Y-41888502D01*
X183398208Y-41931041D01*
X183419218Y-41978317D01*
X183432617Y-42035035D01*
X183437409Y-42103171D01*
X183432630Y-42171346D01*
X183419241Y-42228351D01*
X183398208Y-42276095D01*
X183368684Y-42319154D01*
X183332494Y-42355874D01*
X183289031Y-42386737D01*
X183241008Y-42410990D01*
X183186225Y-42430698D01*
X183123801Y-42445538D01*
X183026514Y-42458486D01*
X182918026Y-42463002D01*
X182808322Y-42458460D01*
X182711519Y-42445538D01*
X182649548Y-42430717D01*
X182594997Y-42411015D01*
X182547021Y-42386737D01*
X182503520Y-42355870D01*
X182467311Y-42319150D01*
X182437784Y-42276095D01*
X182416751Y-42228351D01*
X182403362Y-42171346D01*
X182398583Y-42103171D01*
X182523208Y-42103171D01*
X182526855Y-42150982D01*
X182536943Y-42189620D01*
X182552639Y-42220835D01*
X182574667Y-42247912D01*
X182602170Y-42270226D01*
X182635926Y-42288002D01*
X182692503Y-42306326D01*
X182761222Y-42318105D01*
X182834147Y-42323794D01*
X182916622Y-42325798D01*
X183050345Y-42320913D01*
X183110884Y-42313164D01*
X183163002Y-42300580D01*
X182574987Y-41960411D01*
X182552940Y-41986746D01*
X182536519Y-42019213D01*
X182526771Y-42056242D01*
X182523208Y-42103171D01*
X182398583Y-42103171D01*
X182403375Y-42035035D01*
X182416774Y-41978317D01*
X182437784Y-41931041D01*
X182454323Y-41907227D01*
X182675799Y-41907227D01*
X183262409Y-42245992D01*
X183283316Y-42219666D01*
X183299534Y-42186519D01*
X183309280Y-42149007D01*
X183312784Y-42103171D01*
X183309007Y-42054484D01*
X183298654Y-42015988D01*
X183282681Y-41985629D01*
X183260271Y-41959458D01*
X183232543Y-41938049D01*
X183198722Y-41921210D01*
X183142088Y-41904126D01*
X183072693Y-41893244D01*
X182999140Y-41888047D01*
X182916622Y-41886222D01*
X182786379Y-41890435D01*
X182726480Y-41896931D01*
X182675799Y-41907227D01*
X182454323Y-41907227D01*
X182467324Y-41888506D01*
X182503527Y-41852504D01*
X182547021Y-41822536D01*
X182621323Y-41789016D01*
X182711519Y-41765811D01*
X182808299Y-41753388D01*
X182918026Y-41749019D01*
X183026537Y-41753363D01*
G37*
G36*
X183415000Y-41010245D02*
G01*
X183020181Y-41272074D01*
X183020181Y-41444265D01*
X183415000Y-41444265D01*
X183415000Y-41581468D01*
X182420992Y-41581468D01*
X182420992Y-41227255D01*
X182544213Y-41227255D01*
X182544213Y-41444265D01*
X182897021Y-41444265D01*
X182897021Y-41227255D01*
X182890681Y-41162860D01*
X182873614Y-41115232D01*
X182847318Y-41080282D01*
X182811688Y-41054114D01*
X182770030Y-41038211D01*
X182720617Y-41032655D01*
X182664686Y-41038519D01*
X182622120Y-41054551D01*
X182589746Y-41079750D01*
X182565766Y-41114988D01*
X182550059Y-41162851D01*
X182544213Y-41227255D01*
X182420992Y-41227255D01*
X182426869Y-41140611D01*
X182442896Y-41072335D01*
X182467324Y-41018874D01*
X182499394Y-40977395D01*
X182540809Y-40943922D01*
X182590315Y-40919354D01*
X182649537Y-40903802D01*
X182720617Y-40898260D01*
X182795286Y-40905036D01*
X182857969Y-40924210D01*
X182911004Y-40954985D01*
X182944519Y-40985770D01*
X182972256Y-41023802D01*
X182994342Y-41070186D01*
X183010411Y-41126444D01*
X183401017Y-40860463D01*
X183415000Y-40860463D01*
X183415000Y-41010245D01*
G37*
G36*
X153794917Y-64358522D02*
G01*
X153883150Y-64263329D01*
X153947561Y-64313098D01*
X154021025Y-64350829D01*
X154099747Y-64374508D01*
X154178562Y-64382275D01*
X154243831Y-64377282D01*
X154295679Y-64363572D01*
X154336770Y-64342402D01*
X154369836Y-64312119D01*
X154388999Y-64276573D01*
X154395571Y-64233898D01*
X154392110Y-64206224D01*
X154381953Y-64181778D01*
X154364736Y-64159709D01*
X154330471Y-64131320D01*
X154284258Y-64104388D01*
X154174348Y-64057493D01*
X154053937Y-64008522D01*
X153995818Y-63979506D01*
X153944027Y-63946912D01*
X153898752Y-63908298D01*
X153863488Y-63863625D01*
X153846768Y-63830171D01*
X153836365Y-63791565D01*
X153832714Y-63746694D01*
X153836354Y-63702810D01*
X153846917Y-63663436D01*
X153864221Y-63627748D01*
X153900524Y-63580230D01*
X153946836Y-63540920D01*
X154000142Y-63510303D01*
X154058150Y-63488407D01*
X154118114Y-63475142D01*
X154174348Y-63470883D01*
X154237050Y-63475031D01*
X154297524Y-63487382D01*
X154356309Y-63508008D01*
X154411680Y-63536399D01*
X154460970Y-63571538D01*
X154504748Y-63613704D01*
X154412363Y-63699128D01*
X154353319Y-63650006D01*
X154299645Y-63620726D01*
X154241902Y-63604143D01*
X154174348Y-63598317D01*
X154128410Y-63602613D01*
X154081231Y-63615841D01*
X154037599Y-63637422D01*
X154002096Y-63666216D01*
X153984071Y-63689728D01*
X153973498Y-63715342D01*
X153969917Y-63743885D01*
X153973380Y-63772538D01*
X153983534Y-63797945D01*
X154000692Y-63820944D01*
X154035195Y-63850518D01*
X154081902Y-63878341D01*
X154192544Y-63927312D01*
X154312223Y-63977748D01*
X154369920Y-64006498D01*
X154422133Y-64038625D01*
X154468012Y-64076586D01*
X154503343Y-64120508D01*
X154520137Y-64153460D01*
X154530503Y-64190925D01*
X154534118Y-64233898D01*
X154528135Y-64294361D01*
X154510902Y-64346890D01*
X154482635Y-64393120D01*
X154442405Y-64434116D01*
X154395153Y-64465327D01*
X154337007Y-64488921D01*
X154265720Y-64504192D01*
X154178562Y-64509709D01*
X154104765Y-64504839D01*
X154034031Y-64490378D01*
X153965704Y-64466295D01*
X153900460Y-64434193D01*
X153843814Y-64398236D01*
X153794917Y-64358522D01*
G37*
G36*
X154634502Y-63493292D02*
G01*
X154771705Y-63493292D01*
X154771852Y-63750256D01*
X154782879Y-63967917D01*
X154804006Y-64172736D01*
X154830507Y-64338922D01*
X154966306Y-63825096D01*
X155086717Y-63825096D01*
X155222517Y-64337518D01*
X155247782Y-64171433D01*
X155267946Y-63967245D01*
X155279156Y-63750101D01*
X155281318Y-63493292D01*
X155418521Y-63493292D01*
X155415881Y-63713227D01*
X155406683Y-63905096D01*
X155391838Y-64071537D01*
X155369701Y-64237976D01*
X155344743Y-64375320D01*
X155317710Y-64487300D01*
X155134284Y-64487300D01*
X155026512Y-64051876D01*
X154918678Y-64487300D01*
X154735313Y-64487300D01*
X154708104Y-64375313D01*
X154682657Y-64237962D01*
X154659659Y-64071537D01*
X154644388Y-63905139D01*
X154635653Y-63713289D01*
X154634502Y-63493292D01*
G37*
G36*
X156239849Y-64142917D02*
G01*
X156239849Y-64266077D01*
X156113820Y-64266077D01*
X156113820Y-64487300D01*
X155976616Y-64487300D01*
X155976616Y-64266077D01*
X155562258Y-64266077D01*
X155562258Y-64142917D01*
X155611287Y-63997894D01*
X155668626Y-63844025D01*
X155734634Y-63684896D01*
X155822621Y-63493292D01*
X155964038Y-63493292D01*
X155964038Y-63507275D01*
X155876108Y-63695874D01*
X155810714Y-63850986D01*
X155755682Y-64001083D01*
X155712040Y-64142917D01*
X155976616Y-64142917D01*
X155976616Y-63780278D01*
X156113820Y-63780278D01*
X156113820Y-64142917D01*
X156239849Y-64142917D01*
G37*
D12*
X148964761Y-55582419D02*
X148631428Y-55106228D01*
X148393333Y-55582419D02*
X148393333Y-54582419D01*
X148393333Y-54582419D02*
X148774285Y-54582419D01*
X148774285Y-54582419D02*
X148869523Y-54630038D01*
X148869523Y-54630038D02*
X148917142Y-54677657D01*
X148917142Y-54677657D02*
X148964761Y-54772895D01*
X148964761Y-54772895D02*
X148964761Y-54915752D01*
X148964761Y-54915752D02*
X148917142Y-55010990D01*
X148917142Y-55010990D02*
X148869523Y-55058609D01*
X148869523Y-55058609D02*
X148774285Y-55106228D01*
X148774285Y-55106228D02*
X148393333Y-55106228D01*
X149250476Y-54582419D02*
X149583809Y-55582419D01*
X149583809Y-55582419D02*
X149917142Y-54582419D01*
X150774285Y-55582419D02*
X150202857Y-55582419D01*
X150488571Y-55582419D02*
X150488571Y-54582419D01*
X150488571Y-54582419D02*
X150393333Y-54725276D01*
X150393333Y-54725276D02*
X150298095Y-54820514D01*
X150298095Y-54820514D02*
X150202857Y-54868133D01*
D13*
X196016190Y-40653479D02*
X196016190Y-41167526D01*
X196016190Y-41167526D02*
X196046428Y-41228002D01*
X196046428Y-41228002D02*
X196076666Y-41258241D01*
X196076666Y-41258241D02*
X196137142Y-41288479D01*
X196137142Y-41288479D02*
X196258095Y-41288479D01*
X196258095Y-41288479D02*
X196318571Y-41258241D01*
X196318571Y-41258241D02*
X196348809Y-41228002D01*
X196348809Y-41228002D02*
X196379047Y-41167526D01*
X196379047Y-41167526D02*
X196379047Y-40653479D01*
X196651190Y-40713955D02*
X196681428Y-40683717D01*
X196681428Y-40683717D02*
X196741904Y-40653479D01*
X196741904Y-40653479D02*
X196893095Y-40653479D01*
X196893095Y-40653479D02*
X196953571Y-40683717D01*
X196953571Y-40683717D02*
X196983809Y-40713955D01*
X196983809Y-40713955D02*
X197014047Y-40774431D01*
X197014047Y-40774431D02*
X197014047Y-40834907D01*
X197014047Y-40834907D02*
X196983809Y-40925621D01*
X196983809Y-40925621D02*
X196620952Y-41288479D01*
X196620952Y-41288479D02*
X197014047Y-41288479D01*
D11*
X163830295Y-43050475D02*
X163030295Y-43050475D01*
X163030295Y-43050475D02*
X163030295Y-42859999D01*
X163030295Y-42859999D02*
X163068390Y-42745713D01*
X163068390Y-42745713D02*
X163144580Y-42669523D01*
X163144580Y-42669523D02*
X163220771Y-42631428D01*
X163220771Y-42631428D02*
X163373152Y-42593332D01*
X163373152Y-42593332D02*
X163487438Y-42593332D01*
X163487438Y-42593332D02*
X163639819Y-42631428D01*
X163639819Y-42631428D02*
X163716009Y-42669523D01*
X163716009Y-42669523D02*
X163792200Y-42745713D01*
X163792200Y-42745713D02*
X163830295Y-42859999D01*
X163830295Y-42859999D02*
X163830295Y-43050475D01*
X163106485Y-42288571D02*
X163068390Y-42250475D01*
X163068390Y-42250475D02*
X163030295Y-42174285D01*
X163030295Y-42174285D02*
X163030295Y-41983809D01*
X163030295Y-41983809D02*
X163068390Y-41907618D01*
X163068390Y-41907618D02*
X163106485Y-41869523D01*
X163106485Y-41869523D02*
X163182676Y-41831428D01*
X163182676Y-41831428D02*
X163258866Y-41831428D01*
X163258866Y-41831428D02*
X163373152Y-41869523D01*
X163373152Y-41869523D02*
X163830295Y-42326666D01*
X163830295Y-42326666D02*
X163830295Y-41831428D01*
D12*
X115166667Y-44409800D02*
X115309524Y-44457419D01*
X115309524Y-44457419D02*
X115547619Y-44457419D01*
X115547619Y-44457419D02*
X115642857Y-44409800D01*
X115642857Y-44409800D02*
X115690476Y-44362180D01*
X115690476Y-44362180D02*
X115738095Y-44266942D01*
X115738095Y-44266942D02*
X115738095Y-44171704D01*
X115738095Y-44171704D02*
X115690476Y-44076466D01*
X115690476Y-44076466D02*
X115642857Y-44028847D01*
X115642857Y-44028847D02*
X115547619Y-43981228D01*
X115547619Y-43981228D02*
X115357143Y-43933609D01*
X115357143Y-43933609D02*
X115261905Y-43885990D01*
X115261905Y-43885990D02*
X115214286Y-43838371D01*
X115214286Y-43838371D02*
X115166667Y-43743133D01*
X115166667Y-43743133D02*
X115166667Y-43647895D01*
X115166667Y-43647895D02*
X115214286Y-43552657D01*
X115214286Y-43552657D02*
X115261905Y-43505038D01*
X115261905Y-43505038D02*
X115357143Y-43457419D01*
X115357143Y-43457419D02*
X115595238Y-43457419D01*
X115595238Y-43457419D02*
X115738095Y-43505038D01*
X116071429Y-43457419D02*
X116309524Y-44457419D01*
X116309524Y-44457419D02*
X116500000Y-43743133D01*
X116500000Y-43743133D02*
X116690476Y-44457419D01*
X116690476Y-44457419D02*
X116928572Y-43457419D01*
X117214286Y-43457419D02*
X117833333Y-43457419D01*
X117833333Y-43457419D02*
X117500000Y-43838371D01*
X117500000Y-43838371D02*
X117642857Y-43838371D01*
X117642857Y-43838371D02*
X117738095Y-43885990D01*
X117738095Y-43885990D02*
X117785714Y-43933609D01*
X117785714Y-43933609D02*
X117833333Y-44028847D01*
X117833333Y-44028847D02*
X117833333Y-44266942D01*
X117833333Y-44266942D02*
X117785714Y-44362180D01*
X117785714Y-44362180D02*
X117738095Y-44409800D01*
X117738095Y-44409800D02*
X117642857Y-44457419D01*
X117642857Y-44457419D02*
X117357143Y-44457419D01*
X117357143Y-44457419D02*
X117261905Y-44409800D01*
X117261905Y-44409800D02*
X117214286Y-44362180D01*
D11*
G36*
X175315000Y-44147728D02*
G01*
X175191779Y-44147728D01*
X175191779Y-43890113D01*
X174543620Y-43890113D01*
X174583082Y-43953862D01*
X174614820Y-44023622D01*
X174638813Y-44100101D01*
X174511379Y-44157498D01*
X174485663Y-44074945D01*
X174442808Y-43990191D01*
X174406055Y-43937472D01*
X174365495Y-43893658D01*
X174320992Y-43857873D01*
X174320992Y-43750101D01*
X175191779Y-43750101D01*
X175191779Y-43513490D01*
X175315000Y-43513490D01*
X175315000Y-44147728D01*
G37*
G36*
X174926537Y-42620914D02*
G01*
X175023801Y-42633361D01*
X175086296Y-42647646D01*
X175141076Y-42666668D01*
X175189031Y-42690087D01*
X175232487Y-42720051D01*
X175268671Y-42756052D01*
X175298208Y-42798591D01*
X175319218Y-42845867D01*
X175332617Y-42902586D01*
X175337409Y-42970722D01*
X175332630Y-43038897D01*
X175319241Y-43095902D01*
X175298208Y-43143646D01*
X175268684Y-43186705D01*
X175232494Y-43223425D01*
X175189031Y-43254288D01*
X175141008Y-43278541D01*
X175086225Y-43298249D01*
X175023801Y-43313089D01*
X174926514Y-43326036D01*
X174818026Y-43330552D01*
X174708322Y-43326011D01*
X174611519Y-43313089D01*
X174549548Y-43298268D01*
X174494997Y-43278565D01*
X174447021Y-43254288D01*
X174403520Y-43223421D01*
X174367311Y-43186701D01*
X174337784Y-43143646D01*
X174316751Y-43095902D01*
X174303362Y-43038897D01*
X174298583Y-42970722D01*
X174423208Y-42970722D01*
X174426855Y-43018533D01*
X174436943Y-43057170D01*
X174452639Y-43088386D01*
X174474667Y-43115462D01*
X174502170Y-43137777D01*
X174535926Y-43155552D01*
X174592503Y-43173877D01*
X174661222Y-43185655D01*
X174734147Y-43191345D01*
X174816622Y-43193349D01*
X174950345Y-43188464D01*
X175010884Y-43180714D01*
X175063002Y-43168131D01*
X174474987Y-42827962D01*
X174452940Y-42854296D01*
X174436519Y-42886763D01*
X174426771Y-42923793D01*
X174423208Y-42970722D01*
X174298583Y-42970722D01*
X174303375Y-42902586D01*
X174316774Y-42845867D01*
X174337784Y-42798591D01*
X174354322Y-42774778D01*
X174575799Y-42774778D01*
X175162409Y-43113543D01*
X175183316Y-43087216D01*
X175199534Y-43054069D01*
X175209280Y-43016558D01*
X175212784Y-42970722D01*
X175209007Y-42922035D01*
X175198654Y-42883538D01*
X175182681Y-42853180D01*
X175160271Y-42827009D01*
X175132543Y-42805600D01*
X175098722Y-42788761D01*
X175042088Y-42771677D01*
X174972693Y-42760795D01*
X174899140Y-42755597D01*
X174816622Y-42753773D01*
X174686379Y-42757986D01*
X174626480Y-42764482D01*
X174575799Y-42774778D01*
X174354322Y-42774778D01*
X174367324Y-42756056D01*
X174403527Y-42720054D01*
X174447021Y-42690087D01*
X174521323Y-42656566D01*
X174611519Y-42633361D01*
X174708299Y-42620938D01*
X174818026Y-42616569D01*
X174926537Y-42620914D01*
G37*
G36*
X174926537Y-41753363D02*
G01*
X175023801Y-41765811D01*
X175086296Y-41780096D01*
X175141076Y-41799117D01*
X175189031Y-41822536D01*
X175232487Y-41852500D01*
X175268671Y-41888502D01*
X175298208Y-41931041D01*
X175319218Y-41978317D01*
X175332617Y-42035035D01*
X175337409Y-42103171D01*
X175332630Y-42171346D01*
X175319241Y-42228351D01*
X175298208Y-42276095D01*
X175268684Y-42319154D01*
X175232494Y-42355874D01*
X175189031Y-42386737D01*
X175141008Y-42410990D01*
X175086225Y-42430698D01*
X175023801Y-42445538D01*
X174926514Y-42458486D01*
X174818026Y-42463002D01*
X174708322Y-42458460D01*
X174611519Y-42445538D01*
X174549548Y-42430717D01*
X174494997Y-42411015D01*
X174447021Y-42386737D01*
X174403520Y-42355870D01*
X174367311Y-42319150D01*
X174337784Y-42276095D01*
X174316751Y-42228351D01*
X174303362Y-42171346D01*
X174298583Y-42103171D01*
X174423208Y-42103171D01*
X174426855Y-42150982D01*
X174436943Y-42189620D01*
X174452639Y-42220835D01*
X174474667Y-42247912D01*
X174502170Y-42270226D01*
X174535926Y-42288002D01*
X174592503Y-42306326D01*
X174661222Y-42318105D01*
X174734147Y-42323794D01*
X174816622Y-42325798D01*
X174950345Y-42320913D01*
X175010884Y-42313164D01*
X175063002Y-42300580D01*
X174474987Y-41960411D01*
X174452940Y-41986746D01*
X174436519Y-42019213D01*
X174426771Y-42056242D01*
X174423208Y-42103171D01*
X174298583Y-42103171D01*
X174303375Y-42035035D01*
X174316774Y-41978317D01*
X174337784Y-41931041D01*
X174354323Y-41907227D01*
X174575799Y-41907227D01*
X175162409Y-42245992D01*
X175183316Y-42219666D01*
X175199534Y-42186519D01*
X175209280Y-42149007D01*
X175212784Y-42103171D01*
X175209007Y-42054484D01*
X175198654Y-42015988D01*
X175182681Y-41985629D01*
X175160271Y-41959458D01*
X175132543Y-41938049D01*
X175098722Y-41921210D01*
X175042088Y-41904126D01*
X174972693Y-41893244D01*
X174899140Y-41888047D01*
X174816622Y-41886222D01*
X174686379Y-41890435D01*
X174626480Y-41896931D01*
X174575799Y-41907227D01*
X174354323Y-41907227D01*
X174367324Y-41888506D01*
X174403527Y-41852504D01*
X174447021Y-41822536D01*
X174521323Y-41789016D01*
X174611519Y-41765811D01*
X174708299Y-41753388D01*
X174818026Y-41749019D01*
X174926537Y-41753363D01*
G37*
G36*
X175315000Y-41010245D02*
G01*
X174920181Y-41272074D01*
X174920181Y-41444265D01*
X175315000Y-41444265D01*
X175315000Y-41581468D01*
X174320992Y-41581468D01*
X174320992Y-41227255D01*
X174444213Y-41227255D01*
X174444213Y-41444265D01*
X174797021Y-41444265D01*
X174797021Y-41227255D01*
X174790681Y-41162860D01*
X174773614Y-41115232D01*
X174747318Y-41080282D01*
X174711688Y-41054114D01*
X174670030Y-41038211D01*
X174620617Y-41032655D01*
X174564686Y-41038519D01*
X174522120Y-41054551D01*
X174489746Y-41079750D01*
X174465766Y-41114988D01*
X174450059Y-41162851D01*
X174444213Y-41227255D01*
X174320992Y-41227255D01*
X174326869Y-41140611D01*
X174342896Y-41072335D01*
X174367324Y-41018874D01*
X174399394Y-40977395D01*
X174440809Y-40943922D01*
X174490315Y-40919354D01*
X174549537Y-40903802D01*
X174620617Y-40898260D01*
X174695286Y-40905036D01*
X174757969Y-40924210D01*
X174811004Y-40954985D01*
X174844519Y-40985770D01*
X174872256Y-41023802D01*
X174894342Y-41070186D01*
X174910411Y-41126444D01*
X175301017Y-40860463D01*
X175315000Y-40860463D01*
X175315000Y-41010245D01*
G37*
D14*
G36*
X171415000Y-43673952D02*
G01*
X171291779Y-43673952D01*
X171291779Y-43416337D01*
X170643620Y-43416337D01*
X170683082Y-43480086D01*
X170714820Y-43549846D01*
X170738813Y-43626325D01*
X170611379Y-43683722D01*
X170585663Y-43601169D01*
X170542808Y-43516415D01*
X170506055Y-43463696D01*
X170465495Y-43419882D01*
X170420992Y-43384097D01*
X170420992Y-43276325D01*
X171291779Y-43276325D01*
X171291779Y-43039714D01*
X171415000Y-43039714D01*
X171415000Y-43673952D01*
G37*
G36*
X171026537Y-42147138D02*
G01*
X171123801Y-42159585D01*
X171186296Y-42173870D01*
X171241076Y-42192892D01*
X171289031Y-42216311D01*
X171332487Y-42246275D01*
X171368671Y-42282276D01*
X171398208Y-42324815D01*
X171419218Y-42372091D01*
X171432617Y-42428810D01*
X171437409Y-42496946D01*
X171432630Y-42565121D01*
X171419241Y-42622126D01*
X171398208Y-42669870D01*
X171368684Y-42712929D01*
X171332494Y-42749649D01*
X171289031Y-42780512D01*
X171241008Y-42804765D01*
X171186225Y-42824473D01*
X171123801Y-42839313D01*
X171026514Y-42852260D01*
X170918026Y-42856776D01*
X170808322Y-42852235D01*
X170711519Y-42839313D01*
X170649548Y-42824492D01*
X170594997Y-42804789D01*
X170547021Y-42780512D01*
X170503520Y-42749645D01*
X170467311Y-42712925D01*
X170437784Y-42669870D01*
X170416751Y-42622126D01*
X170403362Y-42565121D01*
X170398583Y-42496946D01*
X170523208Y-42496946D01*
X170526855Y-42544757D01*
X170536943Y-42583394D01*
X170552639Y-42614610D01*
X170574667Y-42641686D01*
X170602170Y-42664001D01*
X170635926Y-42681776D01*
X170692503Y-42700101D01*
X170761222Y-42711879D01*
X170834147Y-42717569D01*
X170916622Y-42719573D01*
X171050345Y-42714688D01*
X171110884Y-42706938D01*
X171163002Y-42694355D01*
X170574987Y-42354186D01*
X170552940Y-42380520D01*
X170536519Y-42412987D01*
X170526771Y-42450017D01*
X170523208Y-42496946D01*
X170398583Y-42496946D01*
X170403375Y-42428810D01*
X170416774Y-42372091D01*
X170437784Y-42324815D01*
X170454322Y-42301002D01*
X170675799Y-42301002D01*
X171262409Y-42639767D01*
X171283316Y-42613440D01*
X171299534Y-42580293D01*
X171309280Y-42542782D01*
X171312784Y-42496946D01*
X171309007Y-42448259D01*
X171298654Y-42409762D01*
X171282681Y-42379404D01*
X171260271Y-42353233D01*
X171232543Y-42331824D01*
X171198722Y-42314985D01*
X171142088Y-42297901D01*
X171072693Y-42287019D01*
X170999140Y-42281821D01*
X170916622Y-42279997D01*
X170786379Y-42284210D01*
X170726480Y-42290706D01*
X170675799Y-42301002D01*
X170454322Y-42301002D01*
X170467324Y-42282280D01*
X170503527Y-42246278D01*
X170547021Y-42216311D01*
X170621323Y-42182790D01*
X170711519Y-42159585D01*
X170808299Y-42147162D01*
X170918026Y-42142793D01*
X171026537Y-42147138D01*
G37*
G36*
X171415000Y-41416598D02*
G01*
X171066404Y-41706454D01*
X171161598Y-41796030D01*
X171415000Y-41796030D01*
X171415000Y-41933233D01*
X170365000Y-41933233D01*
X170365000Y-41796030D01*
X170978171Y-41796030D01*
X170645024Y-41481017D01*
X170645024Y-41321405D01*
X170659007Y-41321405D01*
X170975423Y-41621030D01*
X171401017Y-41261199D01*
X171415000Y-41261199D01*
X171415000Y-41416598D01*
G37*
D11*
X159830295Y-43050475D02*
X159030295Y-43050475D01*
X159030295Y-43050475D02*
X159030295Y-42859999D01*
X159030295Y-42859999D02*
X159068390Y-42745713D01*
X159068390Y-42745713D02*
X159144580Y-42669523D01*
X159144580Y-42669523D02*
X159220771Y-42631428D01*
X159220771Y-42631428D02*
X159373152Y-42593332D01*
X159373152Y-42593332D02*
X159487438Y-42593332D01*
X159487438Y-42593332D02*
X159639819Y-42631428D01*
X159639819Y-42631428D02*
X159716009Y-42669523D01*
X159716009Y-42669523D02*
X159792200Y-42745713D01*
X159792200Y-42745713D02*
X159830295Y-42859999D01*
X159830295Y-42859999D02*
X159830295Y-43050475D01*
X159830295Y-41831428D02*
X159830295Y-42288571D01*
X159830295Y-42059999D02*
X159030295Y-42059999D01*
X159030295Y-42059999D02*
X159144580Y-42136190D01*
X159144580Y-42136190D02*
X159220771Y-42212380D01*
X159220771Y-42212380D02*
X159258866Y-42288571D01*
G36*
X133791583Y-64158522D02*
G01*
X133879816Y-64063329D01*
X133944227Y-64113098D01*
X134017691Y-64150829D01*
X134096413Y-64174508D01*
X134175228Y-64182275D01*
X134240497Y-64177282D01*
X134292345Y-64163572D01*
X134333436Y-64142402D01*
X134366502Y-64112119D01*
X134385665Y-64076573D01*
X134392237Y-64033898D01*
X134388776Y-64006224D01*
X134378619Y-63981778D01*
X134361402Y-63959709D01*
X134327137Y-63931320D01*
X134280924Y-63904388D01*
X134171014Y-63857493D01*
X134050603Y-63808522D01*
X133992484Y-63779506D01*
X133940693Y-63746912D01*
X133895418Y-63708298D01*
X133860154Y-63663625D01*
X133843434Y-63630171D01*
X133833031Y-63591565D01*
X133829380Y-63546694D01*
X133833020Y-63502810D01*
X133843583Y-63463436D01*
X133860887Y-63427748D01*
X133897190Y-63380230D01*
X133943502Y-63340920D01*
X133996808Y-63310303D01*
X134054816Y-63288407D01*
X134114780Y-63275142D01*
X134171014Y-63270883D01*
X134233716Y-63275031D01*
X134294190Y-63287382D01*
X134352975Y-63308008D01*
X134408346Y-63336399D01*
X134457636Y-63371538D01*
X134501414Y-63413704D01*
X134409029Y-63499128D01*
X134349985Y-63450006D01*
X134296311Y-63420726D01*
X134238568Y-63404143D01*
X134171014Y-63398317D01*
X134125076Y-63402613D01*
X134077897Y-63415841D01*
X134034265Y-63437422D01*
X133998762Y-63466216D01*
X133980737Y-63489728D01*
X133970164Y-63515342D01*
X133966583Y-63543885D01*
X133970046Y-63572538D01*
X133980200Y-63597945D01*
X133997358Y-63620944D01*
X134031861Y-63650518D01*
X134078568Y-63678341D01*
X134189210Y-63727312D01*
X134308889Y-63777748D01*
X134366586Y-63806498D01*
X134418799Y-63838625D01*
X134464678Y-63876586D01*
X134500009Y-63920508D01*
X134516803Y-63953460D01*
X134527169Y-63990925D01*
X134530784Y-64033898D01*
X134524801Y-64094361D01*
X134507568Y-64146890D01*
X134479301Y-64193120D01*
X134439071Y-64234116D01*
X134391819Y-64265327D01*
X134333673Y-64288921D01*
X134262386Y-64304192D01*
X134175228Y-64309709D01*
X134101431Y-64304839D01*
X134030697Y-64290378D01*
X133962370Y-64266295D01*
X133897126Y-64234193D01*
X133840480Y-64198236D01*
X133791583Y-64158522D01*
G37*
G36*
X134631168Y-63293292D02*
G01*
X134768371Y-63293292D01*
X134768518Y-63550256D01*
X134779545Y-63767917D01*
X134800672Y-63972736D01*
X134827173Y-64138922D01*
X134962972Y-63625096D01*
X135083383Y-63625096D01*
X135219183Y-64137518D01*
X135244448Y-63971433D01*
X135264612Y-63767245D01*
X135275822Y-63550101D01*
X135277984Y-63293292D01*
X135415187Y-63293292D01*
X135412547Y-63513227D01*
X135403349Y-63705096D01*
X135388504Y-63871537D01*
X135366367Y-64037976D01*
X135341409Y-64175320D01*
X135314376Y-64287300D01*
X135130950Y-64287300D01*
X135023178Y-63851876D01*
X134915344Y-64287300D01*
X134731979Y-64287300D01*
X134704770Y-64175313D01*
X134679323Y-64037962D01*
X134656325Y-63871537D01*
X134641054Y-63705139D01*
X134632319Y-63513289D01*
X134631168Y-63293292D01*
G37*
G36*
X135574312Y-63405278D02*
G01*
X135644467Y-63351337D01*
X135724094Y-63309412D01*
X135781093Y-63289802D01*
X135842461Y-63277802D01*
X135908924Y-63273692D01*
X135965723Y-63278169D01*
X136016461Y-63291118D01*
X136062187Y-63312221D01*
X136103503Y-63341033D01*
X136137842Y-63375403D01*
X136165807Y-63415780D01*
X136186253Y-63460458D01*
X136198676Y-63508940D01*
X136202932Y-63562081D01*
X136199517Y-63620432D01*
X136189927Y-63669933D01*
X136174905Y-63711924D01*
X136143010Y-63770355D01*
X136104196Y-63821101D01*
X136018101Y-63914890D01*
X135781491Y-64164079D01*
X136232302Y-64164079D01*
X136232302Y-64287300D01*
X135591103Y-64287300D01*
X135591103Y-64164079D01*
X135837483Y-63914890D01*
X135941775Y-63812003D01*
X135990476Y-63758676D01*
X136030008Y-63702826D01*
X136049883Y-63662834D01*
X136061731Y-63620834D01*
X136065728Y-63576125D01*
X136060218Y-63528530D01*
X136044201Y-63486999D01*
X136017429Y-63450096D01*
X135982165Y-63421939D01*
X135938426Y-63404528D01*
X135883706Y-63398317D01*
X135825246Y-63404601D01*
X135763966Y-63424206D01*
X135705357Y-63454615D01*
X135649905Y-63494915D01*
X135574312Y-63405278D01*
G37*
X155830295Y-43050475D02*
X155030295Y-43050475D01*
X155030295Y-43050475D02*
X155030295Y-42859999D01*
X155030295Y-42859999D02*
X155068390Y-42745713D01*
X155068390Y-42745713D02*
X155144580Y-42669523D01*
X155144580Y-42669523D02*
X155220771Y-42631428D01*
X155220771Y-42631428D02*
X155373152Y-42593332D01*
X155373152Y-42593332D02*
X155487438Y-42593332D01*
X155487438Y-42593332D02*
X155639819Y-42631428D01*
X155639819Y-42631428D02*
X155716009Y-42669523D01*
X155716009Y-42669523D02*
X155792200Y-42745713D01*
X155792200Y-42745713D02*
X155830295Y-42859999D01*
X155830295Y-42859999D02*
X155830295Y-43050475D01*
X155030295Y-42326666D02*
X155030295Y-41831428D01*
X155030295Y-41831428D02*
X155335057Y-42098094D01*
X155335057Y-42098094D02*
X155335057Y-41983809D01*
X155335057Y-41983809D02*
X155373152Y-41907618D01*
X155373152Y-41907618D02*
X155411247Y-41869523D01*
X155411247Y-41869523D02*
X155487438Y-41831428D01*
X155487438Y-41831428D02*
X155677914Y-41831428D01*
X155677914Y-41831428D02*
X155754104Y-41869523D01*
X155754104Y-41869523D02*
X155792200Y-41907618D01*
X155792200Y-41907618D02*
X155830295Y-41983809D01*
X155830295Y-41983809D02*
X155830295Y-42212380D01*
X155830295Y-42212380D02*
X155792200Y-42288571D01*
X155792200Y-42288571D02*
X155754104Y-42326666D01*
X151830295Y-43050475D02*
X151030295Y-43050475D01*
X151030295Y-43050475D02*
X151030295Y-42859999D01*
X151030295Y-42859999D02*
X151068390Y-42745713D01*
X151068390Y-42745713D02*
X151144580Y-42669523D01*
X151144580Y-42669523D02*
X151220771Y-42631428D01*
X151220771Y-42631428D02*
X151373152Y-42593332D01*
X151373152Y-42593332D02*
X151487438Y-42593332D01*
X151487438Y-42593332D02*
X151639819Y-42631428D01*
X151639819Y-42631428D02*
X151716009Y-42669523D01*
X151716009Y-42669523D02*
X151792200Y-42745713D01*
X151792200Y-42745713D02*
X151830295Y-42859999D01*
X151830295Y-42859999D02*
X151830295Y-43050475D01*
X151030295Y-42326666D02*
X151030295Y-41793332D01*
X151030295Y-41793332D02*
X151830295Y-42136190D01*
D15*
%TO.C,D8 LED*%
X147736000Y-40440000D02*
X147580000Y-40440000D01*
X145420000Y-40440000D02*
X145264000Y-40440000D01*
X147735516Y-40440000D02*
G75*
G02*
X147580000Y-43671437I-1235516J-1560000D01*
G01*
X147580000Y-40959039D02*
G75*
G02*
X147580000Y-43040961I-1080000J-1040961D01*
G01*
X145420000Y-43040961D02*
G75*
G02*
X145420000Y-40959039I1080000J1040961D01*
G01*
X145420000Y-43671437D02*
G75*
G02*
X145264484Y-40440000I1080000J1671437D01*
G01*
D11*
%TO.C,SW1*%
X126490000Y-62400000D02*
X126490000Y-63400000D01*
X125490000Y-76400000D02*
X126490000Y-76400000D01*
X126490000Y-62400000D02*
X125490000Y-62400000D01*
X126490000Y-75400000D02*
X126490000Y-76400000D01*
X112490000Y-76400000D02*
X112490000Y-75400000D01*
X113490000Y-62400000D02*
X112490000Y-62400000D01*
X112490000Y-76400000D02*
X113490000Y-76400000D01*
X112490000Y-63400000D02*
X112490000Y-62400000D01*
%TO.C,SW5*%
X186500000Y-63000000D02*
X186500000Y-64000000D01*
X185500000Y-77000000D02*
X186500000Y-77000000D01*
X186500000Y-63000000D02*
X185500000Y-63000000D01*
X186500000Y-76000000D02*
X186500000Y-77000000D01*
X172500000Y-77000000D02*
X172500000Y-76000000D01*
X173500000Y-63000000D02*
X172500000Y-63000000D01*
X172500000Y-77000000D02*
X173500000Y-77000000D01*
X172500000Y-64000000D02*
X172500000Y-63000000D01*
D15*
%TO.C,100R*%
X178130000Y-44460000D02*
X178130000Y-40620000D01*
X179970000Y-44460000D02*
X179970000Y-40620000D01*
X182180000Y-44460000D02*
X182180000Y-40620000D01*
X184020000Y-44460000D02*
X184020000Y-40620000D01*
D11*
%TO.C,SW4*%
X166496667Y-62800000D02*
X166496667Y-63800000D01*
X165496667Y-76800000D02*
X166496667Y-76800000D01*
X166496667Y-62800000D02*
X165496667Y-62800000D01*
X166496667Y-75800000D02*
X166496667Y-76800000D01*
X152496667Y-76800000D02*
X152496667Y-75800000D01*
X153496667Y-62800000D02*
X152496667Y-62800000D01*
X152496667Y-76800000D02*
X153496667Y-76800000D01*
X152496667Y-63800000D02*
X152496667Y-62800000D01*
D16*
%TO.C,RV1*%
X120060000Y-53125000D02*
X123360000Y-53125000D01*
X124560000Y-53125000D02*
X124620000Y-53125000D01*
X125820000Y-53125000D02*
X125880000Y-53125000D01*
X127080000Y-53125000D02*
X130380000Y-53125000D01*
X131580000Y-53125000D02*
X131640000Y-53125000D01*
X132840000Y-53125000D02*
X132900000Y-53125000D01*
X134100000Y-53125000D02*
X137400000Y-53125000D01*
X138600000Y-53125000D02*
X138660000Y-53125000D01*
X139860000Y-53125000D02*
X139920000Y-53125000D01*
X141120000Y-53125000D02*
X144420000Y-53125000D01*
X145620000Y-53125000D02*
X145680000Y-53125000D01*
X146880000Y-53125000D02*
X146940000Y-53125000D01*
X148140000Y-53125000D02*
X151440000Y-53125000D01*
X152640000Y-53125000D02*
X152700000Y-53125000D01*
X153900000Y-53125000D02*
X153960000Y-53125000D01*
X155160000Y-53125000D02*
X158460000Y-53125000D01*
X159660000Y-53125000D02*
X159720000Y-53125000D01*
X160920000Y-53125000D02*
X160980000Y-53125000D01*
X162180000Y-53125000D02*
X165480000Y-53125000D01*
X166680000Y-53125000D02*
X166740000Y-53125000D01*
X167940000Y-53125000D02*
X168000000Y-53125000D01*
X169200000Y-53125000D02*
X172500000Y-53125000D01*
X173700000Y-53125000D02*
X173760000Y-53125000D01*
X174960000Y-53125000D02*
X175020000Y-53125000D01*
X176220000Y-53125000D02*
X179520000Y-53125000D01*
D12*
X112060000Y-48625000D02*
X187060000Y-48625000D01*
X187060000Y-57625000D01*
X112060000Y-57625000D01*
X112060000Y-48625000D01*
D17*
%TO.C,U2*%
X191110000Y-57277500D02*
X191110000Y-40132500D01*
X193015000Y-59182500D02*
X206985000Y-59182500D01*
X195505000Y-38227500D02*
X195508728Y-37317228D01*
X196008728Y-36817500D02*
X204004000Y-36817500D01*
X204504000Y-37317500D02*
X204504000Y-38227500D01*
D12*
X206985000Y-38227500D02*
X193015000Y-38227500D01*
D17*
X206985000Y-38227500D02*
X193015000Y-38227500D01*
X208890000Y-57277500D02*
X208890000Y-40132500D01*
X191110000Y-40132500D02*
G75*
G02*
X193015000Y-38227500I1905001J-1D01*
G01*
X193015000Y-59182500D02*
G75*
G02*
X191110000Y-57277500I1J1905001D01*
G01*
X195508728Y-37317228D02*
G75*
G02*
X196008728Y-36817501I500018J-291D01*
G01*
X204004000Y-36817500D02*
G75*
G02*
X204504000Y-37317500I0J-500000D01*
G01*
X206985000Y-38227500D02*
G75*
G02*
X208890000Y-40132500I0J-1905000D01*
G01*
X208890000Y-57277500D02*
G75*
G02*
X206985000Y-59182500I-1905000J0D01*
G01*
D18*
X191302000Y-38468500D02*
G75*
G02*
X190798000Y-38468500I-252000J0D01*
G01*
X190798000Y-38468500D02*
G75*
G02*
X191302000Y-38468500I252000J0D01*
G01*
X192445000Y-39348500D02*
G75*
G02*
X191941000Y-39348500I-252000J0D01*
G01*
X191941000Y-39348500D02*
G75*
G02*
X192445000Y-39348500I252000J0D01*
G01*
D15*
%TO.C,D2*%
X164500000Y-40990000D02*
X164500000Y-43960000D01*
X166500000Y-40980000D02*
X166490000Y-43970000D01*
X164500000Y-43970000D02*
X166490000Y-43970000D01*
X165510000Y-44180000D02*
X165510000Y-43060000D01*
X165510000Y-40720000D02*
X165510000Y-42000000D01*
X164500000Y-40980000D02*
X166500000Y-40980000D01*
X165510000Y-42110000D02*
X166050000Y-43060000D01*
X165500000Y-42120000D02*
X164970000Y-43030000D01*
X164970000Y-43060000D02*
X166050000Y-43060000D01*
X164970000Y-42010000D02*
X166050000Y-42010000D01*
D12*
%TO.C,SW3*%
X114700000Y-38250000D02*
X114700000Y-39250000D01*
X114700000Y-38250000D02*
X123300000Y-38250000D01*
X114700000Y-42750000D02*
X114700000Y-41750000D01*
X114700000Y-42750000D02*
X123300000Y-42750000D01*
X123300000Y-38250000D02*
X123300000Y-39250000D01*
X123300000Y-42750000D02*
X123300000Y-41750000D01*
X116700000Y-34250000D02*
X117800000Y-34250000D01*
X118200000Y-34250000D02*
X118220000Y-34250000D01*
X118620000Y-34250000D02*
X118700000Y-34250000D01*
X118700000Y-34250000D02*
X118700000Y-35350000D01*
X118700000Y-35750000D02*
X118700000Y-35770000D01*
X118700000Y-36170000D02*
X118700000Y-37270000D01*
X118700000Y-37670000D02*
X118700000Y-37690000D01*
X118700000Y-38090000D02*
X118700000Y-38250000D01*
X118700000Y-38250000D02*
X117600000Y-38250000D01*
X117200000Y-38250000D02*
X117180000Y-38250000D01*
X116780000Y-38250000D02*
X116700000Y-38250000D01*
X116700000Y-38250000D02*
X116700000Y-37150000D01*
X116700000Y-36750000D02*
X116700000Y-36730000D01*
X116700000Y-36330000D02*
X116700000Y-35230000D01*
X116700000Y-34830000D02*
X116700000Y-34810000D01*
X116700000Y-34410000D02*
X116700000Y-34250000D01*
D15*
%TO.C,D9 LED*%
X140601000Y-40440000D02*
X140445000Y-40440000D01*
X138285000Y-40440000D02*
X138129000Y-40440000D01*
X140600516Y-40440000D02*
G75*
G02*
X140445000Y-43671437I-1235516J-1560000D01*
G01*
X140445000Y-40959039D02*
G75*
G02*
X140445000Y-43040961I-1080000J-1040961D01*
G01*
X138285000Y-43040961D02*
G75*
G02*
X138285000Y-40959039I1080000J1040961D01*
G01*
X138285000Y-43671437D02*
G75*
G02*
X138129484Y-40440000I1080000J1671437D01*
G01*
%TO.C,100R*%
X174080000Y-44460000D02*
X174080000Y-40620000D01*
X175920000Y-44460000D02*
X175920000Y-40620000D01*
%TO.C,10k*%
X170080000Y-44420000D02*
X170080000Y-40580000D01*
X171920000Y-44420000D02*
X171920000Y-40580000D01*
%TO.C,D6 LED*%
X133466000Y-40440000D02*
X133310000Y-40440000D01*
X131150000Y-40440000D02*
X130994000Y-40440000D01*
X133465516Y-40440000D02*
G75*
G02*
X133310000Y-43671437I-1235516J-1560000D01*
G01*
X133310000Y-40959039D02*
G75*
G02*
X133310000Y-43040961I-1080000J-1040961D01*
G01*
X131150000Y-43040961D02*
G75*
G02*
X131150000Y-40959039I1080000J1040961D01*
G01*
X131150000Y-43671437D02*
G75*
G02*
X130994484Y-40440000I1080000J1671437D01*
G01*
%TO.C,D1*%
X160500000Y-40990000D02*
X160500000Y-43960000D01*
X162500000Y-40980000D02*
X162490000Y-43970000D01*
X160500000Y-43970000D02*
X162490000Y-43970000D01*
X161510000Y-44180000D02*
X161510000Y-43060000D01*
X161510000Y-40720000D02*
X161510000Y-42000000D01*
X160500000Y-40980000D02*
X162500000Y-40980000D01*
X161510000Y-42110000D02*
X162050000Y-43060000D01*
X161500000Y-42120000D02*
X160970000Y-43030000D01*
X160970000Y-43060000D02*
X162050000Y-43060000D01*
X160970000Y-42010000D02*
X162050000Y-42010000D01*
D11*
%TO.C,SW2*%
X146493333Y-62600000D02*
X146493333Y-63600000D01*
X145493333Y-76600000D02*
X146493333Y-76600000D01*
X146493333Y-62600000D02*
X145493333Y-62600000D01*
X146493333Y-75600000D02*
X146493333Y-76600000D01*
X132493333Y-76600000D02*
X132493333Y-75600000D01*
X133493333Y-62600000D02*
X132493333Y-62600000D01*
X132493333Y-76600000D02*
X133493333Y-76600000D01*
X132493333Y-63600000D02*
X132493333Y-62600000D01*
D15*
%TO.C,D3*%
X156500000Y-40990000D02*
X156500000Y-43960000D01*
X158500000Y-40980000D02*
X158490000Y-43970000D01*
X156500000Y-43970000D02*
X158490000Y-43970000D01*
X157510000Y-44180000D02*
X157510000Y-43060000D01*
X157510000Y-40720000D02*
X157510000Y-42000000D01*
X156500000Y-40980000D02*
X158500000Y-40980000D01*
X157510000Y-42110000D02*
X158050000Y-43060000D01*
X157500000Y-42120000D02*
X156970000Y-43030000D01*
X156970000Y-43060000D02*
X158050000Y-43060000D01*
X156970000Y-42010000D02*
X158050000Y-42010000D01*
%TO.C,D7*%
X152500000Y-40990000D02*
X152500000Y-43960000D01*
X154500000Y-40980000D02*
X154490000Y-43970000D01*
X152500000Y-43970000D02*
X154490000Y-43970000D01*
X153510000Y-44180000D02*
X153510000Y-43060000D01*
X153510000Y-40720000D02*
X153510000Y-42000000D01*
X152500000Y-40980000D02*
X154500000Y-40980000D01*
X153510000Y-42110000D02*
X154050000Y-43060000D01*
X153500000Y-42120000D02*
X152970000Y-43030000D01*
X152970000Y-43060000D02*
X154050000Y-43060000D01*
X152970000Y-42010000D02*
X154050000Y-42010000D01*
%TD*%
M02*
