%TF.GenerationSoftware,KiCad,Pcbnew,9.0.4-1.fc42app3*%
%TF.CreationDate,2025-10-16T16:53:33+02:00*%
%TF.ProjectId,ccc_macropad,6363635f-6d61-4637-926f-7061642e6b69,rev?*%
%TF.SameCoordinates,Original*%
%TF.FileFunction,Legend,Bot*%
%TF.FilePolarity,Positive*%
%FSLAX46Y46*%
G04 Gerber Fmt 4.6, Leading zero omitted, Abs format (unit mm)*
G04 Created by KiCad (PCBNEW 9.0.4-1.fc42app3) date 2025-10-16 16:53:33*
%MOMM*%
%LPD*%
G01*
G04 APERTURE LIST*
%ADD10C,0.152400*%
%ADD11C,0.150000*%
G04 APERTURE END LIST*
D10*
X144206213Y-40582965D02*
X143586937Y-40582965D01*
X144206213Y-43582965D02*
X143586937Y-43582965D01*
X143896575Y-43892603D02*
X143896575Y-43273327D01*
X130206213Y-43582965D02*
X129586937Y-43582965D01*
X129896575Y-43892603D02*
X129896575Y-43273327D01*
X130206213Y-40582965D02*
X129586937Y-40582965D01*
X137206213Y-40582965D02*
X136586937Y-40582965D01*
X137206213Y-43582965D02*
X136586937Y-43582965D01*
X136896575Y-43892603D02*
X136896575Y-43273327D01*
D11*
X149954819Y-39523809D02*
X148954819Y-39523809D01*
X148954819Y-39523809D02*
X148954819Y-39761904D01*
X148954819Y-39761904D02*
X149002438Y-39904761D01*
X149002438Y-39904761D02*
X149097676Y-39999999D01*
X149097676Y-39999999D02*
X149192914Y-40047618D01*
X149192914Y-40047618D02*
X149383390Y-40095237D01*
X149383390Y-40095237D02*
X149526247Y-40095237D01*
X149526247Y-40095237D02*
X149716723Y-40047618D01*
X149716723Y-40047618D02*
X149811961Y-39999999D01*
X149811961Y-39999999D02*
X149907200Y-39904761D01*
X149907200Y-39904761D02*
X149954819Y-39761904D01*
X149954819Y-39761904D02*
X149954819Y-39523809D01*
X149383390Y-40666666D02*
X149335771Y-40571428D01*
X149335771Y-40571428D02*
X149288152Y-40523809D01*
X149288152Y-40523809D02*
X149192914Y-40476190D01*
X149192914Y-40476190D02*
X149145295Y-40476190D01*
X149145295Y-40476190D02*
X149050057Y-40523809D01*
X149050057Y-40523809D02*
X149002438Y-40571428D01*
X149002438Y-40571428D02*
X148954819Y-40666666D01*
X148954819Y-40666666D02*
X148954819Y-40857142D01*
X148954819Y-40857142D02*
X149002438Y-40952380D01*
X149002438Y-40952380D02*
X149050057Y-40999999D01*
X149050057Y-40999999D02*
X149145295Y-41047618D01*
X149145295Y-41047618D02*
X149192914Y-41047618D01*
X149192914Y-41047618D02*
X149288152Y-40999999D01*
X149288152Y-40999999D02*
X149335771Y-40952380D01*
X149335771Y-40952380D02*
X149383390Y-40857142D01*
X149383390Y-40857142D02*
X149383390Y-40666666D01*
X149383390Y-40666666D02*
X149431009Y-40571428D01*
X149431009Y-40571428D02*
X149478628Y-40523809D01*
X149478628Y-40523809D02*
X149573866Y-40476190D01*
X149573866Y-40476190D02*
X149764342Y-40476190D01*
X149764342Y-40476190D02*
X149859580Y-40523809D01*
X149859580Y-40523809D02*
X149907200Y-40571428D01*
X149907200Y-40571428D02*
X149954819Y-40666666D01*
X149954819Y-40666666D02*
X149954819Y-40857142D01*
X149954819Y-40857142D02*
X149907200Y-40952380D01*
X149907200Y-40952380D02*
X149859580Y-40999999D01*
X149859580Y-40999999D02*
X149764342Y-41047618D01*
X149764342Y-41047618D02*
X149573866Y-41047618D01*
X149573866Y-41047618D02*
X149478628Y-40999999D01*
X149478628Y-40999999D02*
X149431009Y-40952380D01*
X149431009Y-40952380D02*
X149383390Y-40857142D01*
X149954819Y-42714285D02*
X149954819Y-42238095D01*
X149954819Y-42238095D02*
X148954819Y-42238095D01*
X149431009Y-43047619D02*
X149431009Y-43380952D01*
X149954819Y-43523809D02*
X149954819Y-43047619D01*
X149954819Y-43047619D02*
X148954819Y-43047619D01*
X148954819Y-43047619D02*
X148954819Y-43523809D01*
X149954819Y-43952381D02*
X148954819Y-43952381D01*
X148954819Y-43952381D02*
X148954819Y-44190476D01*
X148954819Y-44190476D02*
X149002438Y-44333333D01*
X149002438Y-44333333D02*
X149097676Y-44428571D01*
X149097676Y-44428571D02*
X149192914Y-44476190D01*
X149192914Y-44476190D02*
X149383390Y-44523809D01*
X149383390Y-44523809D02*
X149526247Y-44523809D01*
X149526247Y-44523809D02*
X149716723Y-44476190D01*
X149716723Y-44476190D02*
X149811961Y-44428571D01*
X149811961Y-44428571D02*
X149907200Y-44333333D01*
X149907200Y-44333333D02*
X149954819Y-44190476D01*
X149954819Y-44190476D02*
X149954819Y-43952381D01*
X124633332Y-78062200D02*
X124490475Y-78109819D01*
X124490475Y-78109819D02*
X124252380Y-78109819D01*
X124252380Y-78109819D02*
X124157142Y-78062200D01*
X124157142Y-78062200D02*
X124109523Y-78014580D01*
X124109523Y-78014580D02*
X124061904Y-77919342D01*
X124061904Y-77919342D02*
X124061904Y-77824104D01*
X124061904Y-77824104D02*
X124109523Y-77728866D01*
X124109523Y-77728866D02*
X124157142Y-77681247D01*
X124157142Y-77681247D02*
X124252380Y-77633628D01*
X124252380Y-77633628D02*
X124442856Y-77586009D01*
X124442856Y-77586009D02*
X124538094Y-77538390D01*
X124538094Y-77538390D02*
X124585713Y-77490771D01*
X124585713Y-77490771D02*
X124633332Y-77395533D01*
X124633332Y-77395533D02*
X124633332Y-77300295D01*
X124633332Y-77300295D02*
X124585713Y-77205057D01*
X124585713Y-77205057D02*
X124538094Y-77157438D01*
X124538094Y-77157438D02*
X124442856Y-77109819D01*
X124442856Y-77109819D02*
X124204761Y-77109819D01*
X124204761Y-77109819D02*
X124061904Y-77157438D01*
X123728570Y-77109819D02*
X123490475Y-78109819D01*
X123490475Y-78109819D02*
X123299999Y-77395533D01*
X123299999Y-77395533D02*
X123109523Y-78109819D01*
X123109523Y-78109819D02*
X122871428Y-77109819D01*
X121966666Y-78109819D02*
X122538094Y-78109819D01*
X122252380Y-78109819D02*
X122252380Y-77109819D01*
X122252380Y-77109819D02*
X122347618Y-77252676D01*
X122347618Y-77252676D02*
X122442856Y-77347914D01*
X122442856Y-77347914D02*
X122538094Y-77395533D01*
X184643332Y-78662200D02*
X184500475Y-78709819D01*
X184500475Y-78709819D02*
X184262380Y-78709819D01*
X184262380Y-78709819D02*
X184167142Y-78662200D01*
X184167142Y-78662200D02*
X184119523Y-78614580D01*
X184119523Y-78614580D02*
X184071904Y-78519342D01*
X184071904Y-78519342D02*
X184071904Y-78424104D01*
X184071904Y-78424104D02*
X184119523Y-78328866D01*
X184119523Y-78328866D02*
X184167142Y-78281247D01*
X184167142Y-78281247D02*
X184262380Y-78233628D01*
X184262380Y-78233628D02*
X184452856Y-78186009D01*
X184452856Y-78186009D02*
X184548094Y-78138390D01*
X184548094Y-78138390D02*
X184595713Y-78090771D01*
X184595713Y-78090771D02*
X184643332Y-77995533D01*
X184643332Y-77995533D02*
X184643332Y-77900295D01*
X184643332Y-77900295D02*
X184595713Y-77805057D01*
X184595713Y-77805057D02*
X184548094Y-77757438D01*
X184548094Y-77757438D02*
X184452856Y-77709819D01*
X184452856Y-77709819D02*
X184214761Y-77709819D01*
X184214761Y-77709819D02*
X184071904Y-77757438D01*
X183738570Y-77709819D02*
X183500475Y-78709819D01*
X183500475Y-78709819D02*
X183309999Y-77995533D01*
X183309999Y-77995533D02*
X183119523Y-78709819D01*
X183119523Y-78709819D02*
X182881428Y-77709819D01*
X182024285Y-77709819D02*
X182500475Y-77709819D01*
X182500475Y-77709819D02*
X182548094Y-78186009D01*
X182548094Y-78186009D02*
X182500475Y-78138390D01*
X182500475Y-78138390D02*
X182405237Y-78090771D01*
X182405237Y-78090771D02*
X182167142Y-78090771D01*
X182167142Y-78090771D02*
X182071904Y-78138390D01*
X182071904Y-78138390D02*
X182024285Y-78186009D01*
X182024285Y-78186009D02*
X181976666Y-78281247D01*
X181976666Y-78281247D02*
X181976666Y-78519342D01*
X181976666Y-78519342D02*
X182024285Y-78614580D01*
X182024285Y-78614580D02*
X182071904Y-78662200D01*
X182071904Y-78662200D02*
X182167142Y-78709819D01*
X182167142Y-78709819D02*
X182405237Y-78709819D01*
X182405237Y-78709819D02*
X182500475Y-78662200D01*
X182500475Y-78662200D02*
X182548094Y-78614580D01*
X164639999Y-78462200D02*
X164497142Y-78509819D01*
X164497142Y-78509819D02*
X164259047Y-78509819D01*
X164259047Y-78509819D02*
X164163809Y-78462200D01*
X164163809Y-78462200D02*
X164116190Y-78414580D01*
X164116190Y-78414580D02*
X164068571Y-78319342D01*
X164068571Y-78319342D02*
X164068571Y-78224104D01*
X164068571Y-78224104D02*
X164116190Y-78128866D01*
X164116190Y-78128866D02*
X164163809Y-78081247D01*
X164163809Y-78081247D02*
X164259047Y-78033628D01*
X164259047Y-78033628D02*
X164449523Y-77986009D01*
X164449523Y-77986009D02*
X164544761Y-77938390D01*
X164544761Y-77938390D02*
X164592380Y-77890771D01*
X164592380Y-77890771D02*
X164639999Y-77795533D01*
X164639999Y-77795533D02*
X164639999Y-77700295D01*
X164639999Y-77700295D02*
X164592380Y-77605057D01*
X164592380Y-77605057D02*
X164544761Y-77557438D01*
X164544761Y-77557438D02*
X164449523Y-77509819D01*
X164449523Y-77509819D02*
X164211428Y-77509819D01*
X164211428Y-77509819D02*
X164068571Y-77557438D01*
X163735237Y-77509819D02*
X163497142Y-78509819D01*
X163497142Y-78509819D02*
X163306666Y-77795533D01*
X163306666Y-77795533D02*
X163116190Y-78509819D01*
X163116190Y-78509819D02*
X162878095Y-77509819D01*
X162068571Y-77843152D02*
X162068571Y-78509819D01*
X162306666Y-77462200D02*
X162544761Y-78176485D01*
X162544761Y-78176485D02*
X161925714Y-78176485D01*
X142779819Y-39523809D02*
X141779819Y-39523809D01*
X141779819Y-39523809D02*
X141779819Y-39761904D01*
X141779819Y-39761904D02*
X141827438Y-39904761D01*
X141827438Y-39904761D02*
X141922676Y-39999999D01*
X141922676Y-39999999D02*
X142017914Y-40047618D01*
X142017914Y-40047618D02*
X142208390Y-40095237D01*
X142208390Y-40095237D02*
X142351247Y-40095237D01*
X142351247Y-40095237D02*
X142541723Y-40047618D01*
X142541723Y-40047618D02*
X142636961Y-39999999D01*
X142636961Y-39999999D02*
X142732200Y-39904761D01*
X142732200Y-39904761D02*
X142779819Y-39761904D01*
X142779819Y-39761904D02*
X142779819Y-39523809D01*
X142779819Y-40571428D02*
X142779819Y-40761904D01*
X142779819Y-40761904D02*
X142732200Y-40857142D01*
X142732200Y-40857142D02*
X142684580Y-40904761D01*
X142684580Y-40904761D02*
X142541723Y-40999999D01*
X142541723Y-40999999D02*
X142351247Y-41047618D01*
X142351247Y-41047618D02*
X141970295Y-41047618D01*
X141970295Y-41047618D02*
X141875057Y-40999999D01*
X141875057Y-40999999D02*
X141827438Y-40952380D01*
X141827438Y-40952380D02*
X141779819Y-40857142D01*
X141779819Y-40857142D02*
X141779819Y-40666666D01*
X141779819Y-40666666D02*
X141827438Y-40571428D01*
X141827438Y-40571428D02*
X141875057Y-40523809D01*
X141875057Y-40523809D02*
X141970295Y-40476190D01*
X141970295Y-40476190D02*
X142208390Y-40476190D01*
X142208390Y-40476190D02*
X142303628Y-40523809D01*
X142303628Y-40523809D02*
X142351247Y-40571428D01*
X142351247Y-40571428D02*
X142398866Y-40666666D01*
X142398866Y-40666666D02*
X142398866Y-40857142D01*
X142398866Y-40857142D02*
X142351247Y-40952380D01*
X142351247Y-40952380D02*
X142303628Y-40999999D01*
X142303628Y-40999999D02*
X142208390Y-41047618D01*
X142779819Y-42714285D02*
X142779819Y-42238095D01*
X142779819Y-42238095D02*
X141779819Y-42238095D01*
X142256009Y-43047619D02*
X142256009Y-43380952D01*
X142779819Y-43523809D02*
X142779819Y-43047619D01*
X142779819Y-43047619D02*
X141779819Y-43047619D01*
X141779819Y-43047619D02*
X141779819Y-43523809D01*
X142779819Y-43952381D02*
X141779819Y-43952381D01*
X141779819Y-43952381D02*
X141779819Y-44190476D01*
X141779819Y-44190476D02*
X141827438Y-44333333D01*
X141827438Y-44333333D02*
X141922676Y-44428571D01*
X141922676Y-44428571D02*
X142017914Y-44476190D01*
X142017914Y-44476190D02*
X142208390Y-44523809D01*
X142208390Y-44523809D02*
X142351247Y-44523809D01*
X142351247Y-44523809D02*
X142541723Y-44476190D01*
X142541723Y-44476190D02*
X142636961Y-44428571D01*
X142636961Y-44428571D02*
X142732200Y-44333333D01*
X142732200Y-44333333D02*
X142779819Y-44190476D01*
X142779819Y-44190476D02*
X142779819Y-43952381D01*
X135644819Y-39523809D02*
X134644819Y-39523809D01*
X134644819Y-39523809D02*
X134644819Y-39761904D01*
X134644819Y-39761904D02*
X134692438Y-39904761D01*
X134692438Y-39904761D02*
X134787676Y-39999999D01*
X134787676Y-39999999D02*
X134882914Y-40047618D01*
X134882914Y-40047618D02*
X135073390Y-40095237D01*
X135073390Y-40095237D02*
X135216247Y-40095237D01*
X135216247Y-40095237D02*
X135406723Y-40047618D01*
X135406723Y-40047618D02*
X135501961Y-39999999D01*
X135501961Y-39999999D02*
X135597200Y-39904761D01*
X135597200Y-39904761D02*
X135644819Y-39761904D01*
X135644819Y-39761904D02*
X135644819Y-39523809D01*
X134644819Y-40952380D02*
X134644819Y-40761904D01*
X134644819Y-40761904D02*
X134692438Y-40666666D01*
X134692438Y-40666666D02*
X134740057Y-40619047D01*
X134740057Y-40619047D02*
X134882914Y-40523809D01*
X134882914Y-40523809D02*
X135073390Y-40476190D01*
X135073390Y-40476190D02*
X135454342Y-40476190D01*
X135454342Y-40476190D02*
X135549580Y-40523809D01*
X135549580Y-40523809D02*
X135597200Y-40571428D01*
X135597200Y-40571428D02*
X135644819Y-40666666D01*
X135644819Y-40666666D02*
X135644819Y-40857142D01*
X135644819Y-40857142D02*
X135597200Y-40952380D01*
X135597200Y-40952380D02*
X135549580Y-40999999D01*
X135549580Y-40999999D02*
X135454342Y-41047618D01*
X135454342Y-41047618D02*
X135216247Y-41047618D01*
X135216247Y-41047618D02*
X135121009Y-40999999D01*
X135121009Y-40999999D02*
X135073390Y-40952380D01*
X135073390Y-40952380D02*
X135025771Y-40857142D01*
X135025771Y-40857142D02*
X135025771Y-40666666D01*
X135025771Y-40666666D02*
X135073390Y-40571428D01*
X135073390Y-40571428D02*
X135121009Y-40523809D01*
X135121009Y-40523809D02*
X135216247Y-40476190D01*
X135644819Y-42714285D02*
X135644819Y-42238095D01*
X135644819Y-42238095D02*
X134644819Y-42238095D01*
X135121009Y-43047619D02*
X135121009Y-43380952D01*
X135644819Y-43523809D02*
X135644819Y-43047619D01*
X135644819Y-43047619D02*
X134644819Y-43047619D01*
X134644819Y-43047619D02*
X134644819Y-43523809D01*
X135644819Y-43952381D02*
X134644819Y-43952381D01*
X134644819Y-43952381D02*
X134644819Y-44190476D01*
X134644819Y-44190476D02*
X134692438Y-44333333D01*
X134692438Y-44333333D02*
X134787676Y-44428571D01*
X134787676Y-44428571D02*
X134882914Y-44476190D01*
X134882914Y-44476190D02*
X135073390Y-44523809D01*
X135073390Y-44523809D02*
X135216247Y-44523809D01*
X135216247Y-44523809D02*
X135406723Y-44476190D01*
X135406723Y-44476190D02*
X135501961Y-44428571D01*
X135501961Y-44428571D02*
X135597200Y-44333333D01*
X135597200Y-44333333D02*
X135644819Y-44190476D01*
X135644819Y-44190476D02*
X135644819Y-43952381D01*
X144636665Y-78262200D02*
X144493808Y-78309819D01*
X144493808Y-78309819D02*
X144255713Y-78309819D01*
X144255713Y-78309819D02*
X144160475Y-78262200D01*
X144160475Y-78262200D02*
X144112856Y-78214580D01*
X144112856Y-78214580D02*
X144065237Y-78119342D01*
X144065237Y-78119342D02*
X144065237Y-78024104D01*
X144065237Y-78024104D02*
X144112856Y-77928866D01*
X144112856Y-77928866D02*
X144160475Y-77881247D01*
X144160475Y-77881247D02*
X144255713Y-77833628D01*
X144255713Y-77833628D02*
X144446189Y-77786009D01*
X144446189Y-77786009D02*
X144541427Y-77738390D01*
X144541427Y-77738390D02*
X144589046Y-77690771D01*
X144589046Y-77690771D02*
X144636665Y-77595533D01*
X144636665Y-77595533D02*
X144636665Y-77500295D01*
X144636665Y-77500295D02*
X144589046Y-77405057D01*
X144589046Y-77405057D02*
X144541427Y-77357438D01*
X144541427Y-77357438D02*
X144446189Y-77309819D01*
X144446189Y-77309819D02*
X144208094Y-77309819D01*
X144208094Y-77309819D02*
X144065237Y-77357438D01*
X143731903Y-77309819D02*
X143493808Y-78309819D01*
X143493808Y-78309819D02*
X143303332Y-77595533D01*
X143303332Y-77595533D02*
X143112856Y-78309819D01*
X143112856Y-78309819D02*
X142874761Y-77309819D01*
X142541427Y-77405057D02*
X142493808Y-77357438D01*
X142493808Y-77357438D02*
X142398570Y-77309819D01*
X142398570Y-77309819D02*
X142160475Y-77309819D01*
X142160475Y-77309819D02*
X142065237Y-77357438D01*
X142065237Y-77357438D02*
X142017618Y-77405057D01*
X142017618Y-77405057D02*
X141969999Y-77500295D01*
X141969999Y-77500295D02*
X141969999Y-77595533D01*
X141969999Y-77595533D02*
X142017618Y-77738390D01*
X142017618Y-77738390D02*
X142589046Y-78309819D01*
X142589046Y-78309819D02*
X141969999Y-78309819D01*
%TO.C,SW1*%
X114410000Y-71940000D02*
X114410000Y-72956000D01*
X114410000Y-76004000D02*
X114410000Y-76385000D01*
X114410000Y-76385000D02*
X123300000Y-76385000D01*
X119490000Y-71940000D02*
X114410000Y-71940000D01*
X123681000Y-70035000D02*
X122030000Y-70035000D01*
X125840000Y-70035000D02*
X125459000Y-70035000D01*
X125840000Y-70416000D02*
X125840000Y-70035000D01*
X125840000Y-73845000D02*
X125840000Y-73464000D01*
X121954162Y-70016040D02*
G75*
G02*
X119490000Y-71940000I-2464162J616040D01*
G01*
X125840000Y-73845000D02*
G75*
G02*
X123300000Y-76385000I-2540000J0D01*
G01*
%TO.C,SW5*%
X174420000Y-72540000D02*
X174420000Y-73556000D01*
X174420000Y-76604000D02*
X174420000Y-76985000D01*
X174420000Y-76985000D02*
X183310000Y-76985000D01*
X179500000Y-72540000D02*
X174420000Y-72540000D01*
X183691000Y-70635000D02*
X182040000Y-70635000D01*
X185850000Y-70635000D02*
X185469000Y-70635000D01*
X185850000Y-71016000D02*
X185850000Y-70635000D01*
X185850000Y-74445000D02*
X185850000Y-74064000D01*
X181964162Y-70616040D02*
G75*
G02*
X179500000Y-72540000I-2464162J616040D01*
G01*
X185850000Y-74445000D02*
G75*
G02*
X183310000Y-76985000I-2540000J0D01*
G01*
%TO.C,SW4*%
X154416667Y-72340000D02*
X154416667Y-73356000D01*
X154416667Y-76404000D02*
X154416667Y-76785000D01*
X154416667Y-76785000D02*
X163306667Y-76785000D01*
X159496667Y-72340000D02*
X154416667Y-72340000D01*
X163687667Y-70435000D02*
X162036667Y-70435000D01*
X165846667Y-70435000D02*
X165465667Y-70435000D01*
X165846667Y-70816000D02*
X165846667Y-70435000D01*
X165846667Y-74245000D02*
X165846667Y-73864000D01*
X161960829Y-70416040D02*
G75*
G02*
X159496667Y-72340000I-2464162J616040D01*
G01*
X165846667Y-74245000D02*
G75*
G02*
X163306667Y-76785000I-2540000J0D01*
G01*
%TO.C,SW2*%
X134413333Y-72140000D02*
X134413333Y-73156000D01*
X134413333Y-76204000D02*
X134413333Y-76585000D01*
X134413333Y-76585000D02*
X143303333Y-76585000D01*
X139493333Y-72140000D02*
X134413333Y-72140000D01*
X143684333Y-70235000D02*
X142033333Y-70235000D01*
X145843333Y-70235000D02*
X145462333Y-70235000D01*
X145843333Y-70616000D02*
X145843333Y-70235000D01*
X145843333Y-74045000D02*
X145843333Y-73664000D01*
X141957495Y-70216040D02*
G75*
G02*
X139493333Y-72140000I-2464162J616040D01*
G01*
X145843333Y-74045000D02*
G75*
G02*
X143303333Y-76585000I-2540000J0D01*
G01*
%TD*%
M02*
